<?xml version="1.0" encoding="utf-8"?>
<!-- Generator: Adobe Illustrator 16.0.4, SVG Export Plug-In . SVG Version: 6.00 Build 0)  -->
<!DOCTYPE svg PUBLIC "-//W3C//DTD SVG 1.1//EN" "http://www.w3.org/Graphics/SVG/1.1/DTD/svg11.dtd">
<svg version="1.1" id="Layer_1" xmlns="http://www.w3.org/2000/svg" xmlns:xlink="http://www.w3.org/1999/xlink" x="0px" y="0px"
	 width="217.667px" height="217.667px" viewBox="0 0 217.667 217.667" enable-background="new 0 0 217.667 217.667"
	 xml:space="preserve">
<circle fill="#065053" cx="109.167" cy="108.167" r="97.5"/>
<path fill="#3C5056" d="M187.667,143.821c0,3.763-3.078,6.839-6.84,6.839H34.425c-3.763,0-6.839-3.076-6.839-6.839V57.618
	c0-3.762,3.076-6.839,6.839-6.839h146.403c3.762,0,6.84,3.077,6.84,6.839V143.821z"/>
<path fill="#3C5056" d="M206.664,143.875H8.59v8.209h0.085c-0.052,0.194-0.085,0.392-0.085,0.594c0,2.209,3.08,4.016,6.839,4.016
	H199.82c3.764,0,6.842-1.807,6.842-4.016c0-0.202-0.033-0.399-0.082-0.594h0.082v-8.209H206.664z"/>
<rect x="35.708" y="60.217" fill="#005D71" width="143.836" height="81.006"/>
<rect x="54.453" y="60.217" fill="#BECECB" width="106.347" height="81.012"/>
<line fill="none" stroke="#88A8A5" stroke-width="5" stroke-miterlimit="10" x1="86.039" y1="66.438" x2="156.541" y2="66.438"/>
<line fill="none" stroke="#88A8A5" stroke-width="5" stroke-miterlimit="10" x1="89.914" y1="84.264" x2="156.541" y2="84.264"/>
<line fill="none" stroke="#88A8A5" stroke-width="5" stroke-miterlimit="10" x1="89.914" y1="92.771" x2="156.541" y2="92.771"/>
<line fill="none" stroke="#88A8A5" stroke-width="5" stroke-miterlimit="10" x1="110.539" y1="123.371" x2="156.541" y2="123.371"/>
<line fill="none" stroke="#88A8A5" stroke-width="5" stroke-miterlimit="10" x1="110.539" y1="132.071" x2="156.541" y2="132.071"/>
<rect x="59.746" y="64.462" fill="#6CA9A3" width="21.27" height="13.717"/>
<rect x="59.746" y="122.123" fill="#6CA9A3" width="46.001" height="19.106"/>
<rect x="59.746" y="82.162" fill="#BABC84" width="21.27" height="13.716"/>
<line fill="none" stroke="#88A8A5" stroke-width="5" stroke-miterlimit="10" x1="90.055" y1="102.144" x2="156.682" y2="102.144"/>
<line fill="none" stroke="#88A8A5" stroke-width="5" stroke-miterlimit="10" x1="90.055" y1="110.651" x2="156.682" y2="110.651"/>
<rect x="59.887" y="100.042" fill="#105B6B" width="21.27" height="13.717"/>
</svg>
