<?xml version="1.0" encoding="utf-8"?>
<!-- Generator: Adobe Illustrator 16.0.4, SVG Export Plug-In . SVG Version: 6.00 Build 0)  -->
<!DOCTYPE svg PUBLIC "-//W3C//DTD SVG 1.1//EN" "http://www.w3.org/Graphics/SVG/1.1/DTD/svg11.dtd">
<svg version="1.1" id="Layer_1" xmlns="http://www.w3.org/2000/svg" xmlns:xlink="http://www.w3.org/1999/xlink" x="0px" y="0px"
	 width="217.667px" height="217.667px" viewBox="0 0 217.667 217.667" enable-background="new 0 0 217.667 217.667"
	 xml:space="preserve">
<circle fill="#065053" cx="109.167" cy="108.167" r="97.5"/>
<path fill="none" d="M56.962,114.548c0.053,0.498-0.169,0.719-0.667,0.666"/>
<path opacity="0.8" fill="#495057" d="M71.516,173.837c-6.023,0-10.953-4.928-10.953-10.951V70.292
	c0-6.023,4.93-10.951,10.953-10.951h42.981c6.025,0,10.955,4.928,10.955,10.951v92.594c0,6.023-4.93,10.951-10.955,10.951H71.516z"
	/>
<rect x="64.549" y="75.95" fill="#6BC1BF" width="56.92" height="75.799"/>
<rect x="64.549" y="75.587" fill="#BECECB" width="56.92" height="79.523"/>
<line fill="none" stroke="#88A8A5" stroke-width="5" stroke-miterlimit="10" x1="68.662" y1="147.112" x2="117.514" y2="147.112"/>
<rect x="68.436" y="79.164" fill="#C47761" width="49.028" height="12.878"/>
<rect x="68.435" y="99.255" fill="#6CA9A3" width="49.029" height="37.958"/>
<g>
	<circle fill="#105B6B" cx="93.293" cy="111.073" r="8.259"/>
	<path fill="#105B6B" d="M89.736,117.427c1.313,4.129-5.634,5.344-8.339,6.336c-4.844,1.775-4.381,9.891-4.381,9.891h32.143
		c0,0,0.463-8.115-4.381-9.891c-2.705-0.992-9.652-2.207-8.339-6.336"/>
</g>
<path opacity="0.8" fill="#DA7F64" d="M172.292,60.002c0,12.98-12.272,23.505-27.414,23.505c-5.244,0-8.9-1.665-13.903,0.481
	c-4.415,1.896-9.138,3.061-12.964-1.211c3.001-2.361,6.533-4.604,4.41-9.299c-2.156-4.77-4.957-7.385-4.957-13.478
	c0-12.981,12.273-23.505,27.414-23.505C160.02,36.495,172.292,47.021,172.292,60.002z"/>
<polygon fill="#C3B6AB" points="154.421,46.148 159.289,49.834 142.392,76.043 130.468,64.244 134.335,59.324 141.544,66.37 "/>
</svg>
