<?xml version="1.0" encoding="utf-8"?>
<!-- Generator: Adobe Illustrator 16.0.4, SVG Export Plug-In . SVG Version: 6.00 Build 0)  -->
<!DOCTYPE svg PUBLIC "-//W3C//DTD SVG 1.1//EN" "http://www.w3.org/Graphics/SVG/1.1/DTD/svg11.dtd">
<svg version="1.1" id="Layer_1" xmlns="http://www.w3.org/2000/svg" xmlns:xlink="http://www.w3.org/1999/xlink" x="0px" y="0px"
	 width="195px" height="195px" viewBox="0 0 195 195" enable-background="new 0 0 195 195" xml:space="preserve">
<polygon fill="#FFFFFF" points="72.589,133.349 153.646,88.633 159.638,88.719 164.976,92.678 168.022,98.664 174.018,96.137 
	174.018,102.416 171.021,107.895 81.814,158.432 75.626,158.432 68.242,153.085 66.619,148.028 65.98,142.574 67.311,137.5 "/>
<path fill="#005D71" stroke="#005E72" stroke-width="0.5322" stroke-linejoin="round" d="M96.881,34.427
	c-5.34,0-69.723,25.854-69.723,30.191c0,4.334,64.344,37.82,69.723,37.82s64.398-33.995,64.398-37.82
	C161.279,60.792,102.221,34.427,96.881,34.427z"/>
<path fill="#005D71" d="M54.302,85.372c-0.101-2.278,35.998,20.013,42.579,20.013c4.949,0,38.32-22.399,38.32-20.013
	c0,2.387,0,12.896,0,12.896l-1.171,1.14c0,0-43.95,26.456-47.147,26.152c-27.869-2.646-32.582-15.494-32.582-15.494
	S54.403,87.65,54.302,85.372z"/>
<path fill="none" stroke="#229DD2" stroke-width="4.2578" stroke-linecap="round" stroke-miterlimit="10" d="M94.752,60.753
	c-23.418-4.219-55.379,15.17-55.352,24.03c0.02,6.734,8.246,11.663,5.056,18.362c-2.848,5.981-9.512,12.348-15.992,14.132
	c-0.357-0.286,0.143-0.128,0.291-0.293"/>
<path fill="#229DD2" d="M36.472,111.661c-3.229-0.341-16.754,3.196-17.735,5.058c-0.982,1.861,1.315,4.603,2.833,6.208
	c1.77,1.872,4.879,4.258,8.457,1.182c1.79-1.539,3.006-3.624,4.836-5.462c2.003-2.014,2.708-2.766,2.231-5.389L36.472,111.661z"/>
<line fill="none" stroke="#005D71" stroke-width="2.6612" stroke-miterlimit="10" x1="152.766" y1="88.905" x2="71.333" y2="134.547"/>
<ellipse transform="matrix(0.9642 -0.2652 0.2652 0.9642 -35.9439 25.5802)" fill="none" stroke="#005D71" stroke-width="2.6612" stroke-miterlimit="10" cx="76.751" cy="145.89" rx="9.907" ry="12.716"/>
<line fill="none" stroke="#005D71" stroke-width="2.6612" stroke-miterlimit="10" x1="168.748" y1="109.046" x2="81.342" y2="157.824"/>
<path fill="none" stroke="#005D71" stroke-width="2.6612" stroke-miterlimit="10" d="M152.287,89.146
	c0.431-0.21,0.885-0.382,1.358-0.513c5.275-1.451,11.062,2.861,12.924,9.632c0.201,0.73,0.339,1.464,0.42,2.195"/>
<path fill="none" stroke="#005D71" stroke-width="2.6612" stroke-miterlimit="10" d="M172.719,97.104
	c-15.066,8.445-78.233,43.85-78.233,43.85"/>
<path fill="none" stroke="#005D71" stroke-width="2.6612" stroke-miterlimit="10" d="M168.022,109.444
	c4.345-2.107,7.712-9.234,5.051-14.057"/>
<path fill="none" stroke="#005D71" stroke-width="2.6612" stroke-miterlimit="10" d="M93.712,139.854
	c2.36,4.573-0.084,9.61-2.704,12.552"/>
<path fill="none" stroke="#005D71" stroke-width="2.6612" stroke-miterlimit="10" d="M85.686,154.246
	c-3.794-0.32-7.699-3.644-9.288-7.857c-1.745-4.629-0.326-9.487,2.216-12.368"/>
<path fill="none" stroke="#D97F63" stroke-width="2.6612" stroke-miterlimit="10" d="M118.3,108.307
	c0.433-0.211,0.886-0.383,1.359-0.514c5.275-1.45,11.062,2.862,12.925,9.634c1.493,5.428-0.252,11.279-3.814,13.866"/>
<path fill="none" stroke="#D97F63" stroke-width="2.6612" stroke-miterlimit="10" d="M107.178,114.467
	c0.431-0.209,2.482-0.915,2.955-1.045c5.276-1.45,11.062,2.863,12.924,9.634c1.32,4.796-0.029,9.819-2.714,12.785"/>
<path fill="#DA7F64" d="M112.449,112.128c0,0,4.635-6.011,9.469-5.934c4.834,0.078,10.355,10.89,10.355,10.89l0.399,5.155v3.294
	l-1.264,3.393l-3.128,3.061l-6.087,2.162l1.375-4.291l0.421-2.961l-0.764-3.826l-1.673-3.667l-2.285-3.716"/>
<line fill="none" stroke="#DA7F64" stroke-width="2.1289" stroke-miterlimit="10" x1="107.685" y1="113.971" x2="118.595" y2="107.895"/>
<path fill="none" stroke="#DA7F64" stroke-width="2.6612" stroke-miterlimit="10" d="M119.238,136.674"/>
<polygon fill="#DA7F64" points="119.372,134.973 120.469,137.5 130.161,132.101 129.595,128.853 "/>
</svg>
