<?xml version="1.0" encoding="utf-8"?>
<!-- Generator: Adobe Illustrator 16.0.4, SVG Export Plug-In . SVG Version: 6.00 Build 0)  -->
<!DOCTYPE svg PUBLIC "-//W3C//DTD SVG 1.1//EN" "http://www.w3.org/Graphics/SVG/1.1/DTD/svg11.dtd">
<svg version="1.1" id="Layer_1" xmlns="http://www.w3.org/2000/svg" xmlns:xlink="http://www.w3.org/1999/xlink" x="0px" y="0px"
	 width="195px" height="195px" viewBox="0 0 195 195" enable-background="new 0 0 195 195" xml:space="preserve">
<polyline fill="#005D71" points="104.259,125.128 119.674,112.591 166.399,74.898 166.399,146.914 32,146.914 49.451,110.74 "/>
<polyline fill="none" stroke="#39BEC1" stroke-width="3.6996" stroke-miterlimit="10" points="32.547,146.914 62.331,114.852 
	86.172,130.883 106.313,110.985 119.878,122.867 164.8,88.045 "/>
<polyline fill="none" stroke="#DC8067" stroke-width="3.6996" stroke-miterlimit="10" points="32.547,146.914 62.331,127.183 
	73.84,130.883 106.313,98.653 132.211,118.757 165.853,109.699 "/>
<line fill="none" stroke="#229DD2" stroke-width="3.6996" stroke-miterlimit="10" x1="32.712" y1="147.854" x2="32.712" y2="53.73"/>
<line fill="none" stroke="#229DD2" stroke-width="3.6996" stroke-miterlimit="10" x1="30.892" y1="146.914" x2="166.466" y2="146.914"/>
<g>
	<path fill="#39BEC1" d="M48.641,90.867v-3.594c-2.534-0.113-4.992-0.793-6.429-1.625l1.134-4.425
		c1.589,0.871,3.82,1.665,6.278,1.665c2.156,0,3.63-0.833,3.63-2.345c0-1.437-1.21-2.344-4.008-3.29
		C45.2,75.891,42.438,74,42.438,70.332c0-3.327,2.346-5.937,6.392-6.731v-3.592h3.707v3.328c2.534,0.113,4.235,0.643,5.483,1.248
		l-1.097,4.273c-0.983-0.416-2.722-1.285-5.445-1.285c-2.458,0-3.252,1.059-3.252,2.117c0,1.249,1.323,2.043,4.538,3.252
		c4.5,1.588,6.315,3.668,6.315,7.072c0,3.366-2.382,6.239-6.731,6.996v3.858H48.641z"/>
</g>
<g>
	<path fill="#E7D689" d="M74.657,105.663v-6.052h-5.861v-2.683h5.861v-2.42h-5.861v-2.685h4.5l-6.164-10.74h6.164l2.647,6.051
		c0.681,1.513,1.098,2.798,1.588,4.123h0.076c0.491-1.249,0.983-2.685,1.625-4.161l2.685-6.013h6.051l-6.467,10.74h4.5v2.685h-5.937
		v2.42h5.937v2.683h-5.937v6.052H74.657z"/>
</g>
<g>
	<path fill="#DC8067" d="M84.893,72.415c-1.286,0.718-3.479,1.437-5.899,1.437c-3.707,0-7.109-1.513-9.227-4.312
		c-1.021-1.286-1.778-2.912-2.118-4.916h-2.458v-2.686h2.08c0-0.188,0-0.416,0-0.643c0-0.378,0.038-0.756,0.038-1.134h-2.118v-2.684
		h2.534c0.492-2.043,1.399-3.782,2.609-5.182c2.155-2.421,5.181-3.857,8.735-3.857c2.308,0,4.311,0.529,5.672,1.135l-1.058,4.311
		c-0.983-0.416-2.534-0.908-4.198-0.908c-1.815,0-3.479,0.605-4.651,2.042c-0.529,0.604-0.945,1.474-1.21,2.458h9.417v2.684h-9.985
		c-0.037,0.378-0.037,0.794-0.037,1.173c0,0.226,0,0.377,0,0.604h10.022v2.686h-9.492c0.264,1.135,0.681,2.004,1.247,2.647
		c1.21,1.361,2.987,1.928,4.878,1.928c1.739,0,3.517-0.567,4.311-0.983L84.893,72.415z"/>
</g>
</svg>
