<?xml version="1.0" encoding="utf-8"?>
<!-- Generator: Adobe Illustrator 16.0.4, SVG Export Plug-In . SVG Version: 6.00 Build 0)  -->
<!DOCTYPE svg PUBLIC "-//W3C//DTD SVG 1.1//EN" "http://www.w3.org/Graphics/SVG/1.1/DTD/svg11.dtd">
<svg version="1.1" id="Layer_1" xmlns="http://www.w3.org/2000/svg" xmlns:xlink="http://www.w3.org/1999/xlink" x="0px" y="0px"
	 width="195px" height="195px" viewBox="0 0 195 195" style="enable-background:new 0 0 195 195;" xml:space="preserve">
<style type="text/css">
<![CDATA[
	.st0{fill:none;stroke:#E7D689;stroke-miterlimit:10;}
	.st1{fill:#E7D58A;}
	.st2{fill:#86BCB6;}
	.st3{fill:#C1A73A;}
	.st4{fill:none;stroke:#86BCB6;stroke-width:2;stroke-miterlimit:10;}
	.st5{fill:#005D71;}
]]>
</style>
<path class="st4" d="M91.9,52.2c0,0,12-22.5,23.1-22.5c11.1,0,12.7,22.5,12.7,22.5"/>
<polygon class="st5" points="74,54.4 95.4,62.3 80.7,50.2 "/>
<g>
	<polygon class="st5" points="150.5,139.7 76.2,135.7 80.6,50.2 146.3,53.7 	"/>
	<polygon class="st5" points="80.7,50.2 82.3,48.1 83.7,50.4 	"/>
	<polygon class="st5" points="83.7,50.4 85.3,48.2 86.7,50.6 	"/>
	<polygon class="st5" points="86.7,50.6 88.3,48.4 89.6,50.7 	"/>
	<polygon class="st5" points="89.7,50.6 91.3,48.5 92.7,50.8 	"/>
	<polygon class="st5" points="92.6,50.9 94.2,48.7 95.6,51 	"/>
	<polygon class="st5" points="95.6,51 97.2,48.9 98.6,51.2 	"/>
	<polygon class="st5" points="98.5,51.2 100.1,49 101.5,51.3 	"/>
	<polygon class="st5" points="101.5,51.3 103.1,49.2 104.5,51.5 	"/>
	<polygon class="st5" points="104.5,51.5 106.1,49.3 107.5,51.7 	"/>
	<polygon class="st5" points="107.5,51.7 109.1,49.5 110.5,51.8 	"/>
	<polygon class="st5" points="110.5,51.8 112.1,49.6 113.5,52 	"/>
	<polygon class="st5" points="113.5,52 115.1,49.8 116.4,52.1 	"/>
	<polygon class="st5" points="116.4,52.1 118.1,49.9 119.4,52.3 	"/>
	<polygon class="st5" points="119.4,52.3 121,50.1 122.4,52.4 	"/>
	<polygon class="st5" points="122.4,52.4 124,50.3 125.4,52.6 	"/>
	<polygon class="st5" points="125.4,52.6 127,50.4 128.4,52.7 	"/>
	<polygon class="st5" points="128.4,52.7 130,50.6 131.4,52.9 	"/>
	<polygon class="st5" points="131.4,52.9 133,50.7 134.4,53.1 	"/>
	<polygon class="st5" points="134.4,53.1 136,50.9 137.4,53.2 	"/>
	<polygon class="st5" points="137.4,53.2 139,51 140.3,53.4 	"/>
	<polygon class="st5" points="140.3,53.4 142,51.2 143.3,53.5 	"/>
	<polygon class="st5" points="143.3,53.5 144.9,51.4 146.3,53.7 	"/>
</g>
<polygon class="st2" points="135,146.2 69.3,139.9 73.8,54.4 139.6,58 "/>
<polygon class="st2" points="74,54.5 75.6,52.4 77,54.7 "/>
<polygon class="st2" points="77,54.7 78.6,52.5 80,54.8 "/>
<polygon class="st2" points="80,54.8 81.6,52.7 83,55 "/>
<polygon class="st2" points="83,55 84.6,52.8 85.9,55.2 "/>
<polygon class="st2" points="85.9,55.2 87.6,53 88.9,55.3 "/>
<polygon class="st2" points="88.9,55.3 90.5,53.1 91.9,55.5 "/>
<polygon class="st2" points="91.8,55.5 93.4,53.3 94.8,55.6 "/>
<polygon class="st2" points="94.8,55.6 96.4,53.5 97.8,55.8 "/>
<polygon class="st2" points="97.8,55.8 99.4,53.6 100.8,55.9 "/>
<polygon class="st2" points="100.8,55.9 102.4,53.8 103.8,56.1 "/>
<polygon class="st2" points="103.8,56.1 105.4,53.9 106.8,56.3 "/>
<polygon class="st2" points="106.8,56.3 108.4,54.1 109.8,56.4 "/>
<polygon class="st2" points="109.8,56.4 111.4,54.2 112.7,56.6 "/>
<polygon class="st2" points="112.7,56.6 114.4,54.4 115.7,56.7 "/>
<polygon class="st2" points="115.7,56.7 117.3,54.5 118.7,56.9 "/>
<polygon class="st2" points="118.7,56.9 120.3,54.7 121.7,57 "/>
<polygon class="st2" points="121.7,57 123.3,54.9 124.7,57.2 "/>
<polygon class="st2" points="124.7,57.2 126.3,55 127.7,57.4 "/>
<polygon class="st2" points="127.7,57.4 129.3,55.2 130.7,57.5 "/>
<polygon class="st2" points="130.7,57.5 132.3,55.3 133.7,57.7 "/>
<polygon class="st2" points="133.7,57.7 135.3,55.5 136.6,57.8 "/>
<polygon class="st2" points="136.6,57.8 138.3,55.6 139.6,58 "/>
<polygon class="st5" points="134.7,146.2 150.6,139.6 135.9,127.4 "/>
<path class="st4" d="M88.1,61.3c0,0,12-22.5,23.1-22.5c11.1,0,12.7,22.5,12.7,22.5"/>
<path class="st0" d="M49.1,93.1c0,0,7.1-13.3,13.6-13.3s7.5,13.3,7.5,13.3"/>
<polygon class="st3" points="38.6,94.4 51.2,99.1 42.5,91.9 "/>
<g>
	<polygon class="st3" points="83.7,144.6 39.9,142.3 42.5,91.9 81.2,93.9 	"/>
	<polygon class="st3" points="42.5,91.9 43.5,90.6 44.3,92 	"/>
	<polygon class="st3" points="44.3,92 45.2,90.7 46,92.1 	"/>
	<polygon class="st3" points="46,92.1 47,90.8 47.8,92.2 	"/>
	<polygon class="st3" points="47.8,92.2 48.7,90.9 49.5,92.3 	"/>
	<polygon class="st3" points="49.5,92.3 50.5,91 51.3,92.4 	"/>
	<polygon class="st3" points="51.3,92.4 52.3,91.1 53.1,92.5 	"/>
	<polygon class="st3" points="53,92.5 54,91.2 54.8,92.6 	"/>
	<polygon class="st3" points="54.8,92.6 55.7,91.3 56.5,92.6 	"/>
	<polygon class="st3" points="56.5,92.6 57.5,91.4 58.3,92.7 	"/>
	<polygon class="st3" points="58.3,92.7 59.3,91.5 60.1,92.8 	"/>
	<polygon class="st3" points="60.1,92.8 61,91.6 61.8,92.9 	"/>
	<polygon class="st3" points="61.8,92.9 62.8,91.6 63.6,93 	"/>
	<polygon class="st3" points="63.6,93 64.5,91.7 65.3,93.1 	"/>
	<polygon class="st3" points="65.3,93.1 66.3,91.8 67.1,93.2 	"/>
	<polygon class="st3" points="67.1,93.2 68.1,91.9 68.9,93.3 	"/>
	<polygon class="st3" points="68.9,93.3 69.8,92 70.6,93.4 	"/>
	<polygon class="st3" points="70.6,93.4 71.6,92.1 72.4,93.5 	"/>
	<polygon class="st3" points="72.4,93.5 73.3,92.2 74.2,93.6 	"/>
	<polygon class="st3" points="74.2,93.6 75.1,92.3 75.9,93.7 	"/>
	<polygon class="st3" points="75.9,93.7 76.9,92.4 77.7,93.8 	"/>
	<polygon class="st3" points="77.7,93.8 78.6,92.5 79.4,93.9 	"/>
	<polygon class="st3" points="79.4,93.9 80.4,92.6 81.2,93.9 	"/>
</g>
<polygon class="st1" points="74.6,148.5 35.9,144.8 38.6,94.4 77.3,96.4 "/>
<polygon class="st1" points="38.6,94.4 39.5,93.1 40.3,94.5 "/>
<polygon class="st1" points="40.3,94.5 41.3,93.2 42.1,94.6 "/>
<polygon class="st1" points="42.1,94.6 43,93.3 43.9,94.7 "/>
<polygon class="st1" points="43.9,94.7 44.8,93.4 45.6,94.8 "/>
<polygon class="st1" points="45.6,94.8 46.6,93.5 47.4,94.9 "/>
<polygon class="st1" points="47.4,94.9 48.3,93.6 49.1,94.9 "/>
<polygon class="st1" points="49.1,94.9 50,93.7 50.8,95 "/>
<polygon class="st1" points="50.8,95 51.8,93.8 52.6,95.1 "/>
<polygon class="st1" points="52.6,95.1 53.6,93.8 54.4,95.2 "/>
<polygon class="st1" points="54.4,95.2 55.3,93.9 56.1,95.3 "/>
<polygon class="st1" points="56.1,95.3 57.1,94 57.9,95.4 "/>
<polygon class="st1" points="57.9,95.4 58.8,94.1 59.6,95.5 "/>
<polygon class="st1" points="59.6,95.5 60.6,94.2 61.4,95.6 "/>
<polygon class="st1" points="61.4,95.6 62.4,94.3 63.2,95.7 "/>
<polygon class="st1" points="63.2,95.7 64.1,94.4 64.9,95.8 "/>
<polygon class="st1" points="64.9,95.8 65.9,94.5 66.7,95.9 "/>
<polygon class="st1" points="66.7,95.9 67.6,94.6 68.5,96 "/>
<polygon class="st1" points="68.5,96 69.4,94.7 70.2,96.1 "/>
<polygon class="st1" points="70.2,96.1 71.2,94.8 72,96.1 "/>
<polygon class="st1" points="72,96.1 72.9,94.9 73.7,96.2 "/>
<polygon class="st1" points="73.7,96.2 74.7,95 75.5,96.3 "/>
<polygon class="st1" points="75.5,96.3 76.4,95 77.3,96.4 "/>
<polygon class="st3" points="74.6,148.5 83.7,144.6 75,137.5 "/>
<path class="st0" d="M46.9,98.5c0,0,7.1-13.3,13.6-13.3S68,98.5,68,98.5"/>
<polygon class="st3" points="56.9,109.8 59.6,117 67.1,118.9 61.1,123.7 61.6,131.4 55.2,127.1 48.1,130 50.1,122.6 45.1,116.7 
	52.8,116.4 "/>
<polygon class="st5" points="104.2,80.6 108.1,91.1 119,93.8 110.2,100.8 111,112 101.6,105.9 91.2,110.1 94.2,99.2 87,90.7 
	98.2,90.1 "/>
</svg>
