<?xml version="1.0" encoding="utf-8"?>
<!-- Generator: Adobe Illustrator 16.0.4, SVG Export Plug-In . SVG Version: 6.00 Build 0)  -->
<!DOCTYPE svg PUBLIC "-//W3C//DTD SVG 1.1//EN" "http://www.w3.org/Graphics/SVG/1.1/DTD/svg11.dtd">
<svg version="1.1" id="Layer_1" xmlns="http://www.w3.org/2000/svg" xmlns:xlink="http://www.w3.org/1999/xlink" x="0px" y="0px"
	 width="195px" height="195px" viewBox="0 0 195 195" style="enable-background:new 0 0 195 195;" xml:space="preserve">
<style type="text/css">
<![CDATA[
	.st0{fill:none;stroke:#A7BDB9;stroke-width:5;stroke-miterlimit:10;}
	.st1{fill:#E7D58A;}
	.st2{fill:none;stroke:#229CD2;stroke-width:8;stroke-linecap:round;stroke-miterlimit:10;}
	.st3{fill:#86BCB6;}
	.st4{fill:none;stroke:#86BCB5;stroke-width:5;stroke-linecap:round;stroke-miterlimit:10;}
	.st5{fill:#EBEAE5;}
	.st6{fill:#C1A73A;}
	.st7{fill:none;}
	.st8{fill:#6BC1BF;}
	.st9{fill:#005D71;}
	.st10{fill:none;stroke:#3ABEC0;stroke-width:6;stroke-linecap:round;stroke-miterlimit:10;}
	.st11{fill:#A7BDB9;}
]]>
</style>
<circle class="st6" cx="76.1" cy="81.6" r="7"/>
<line class="st4" x1="57.6" y1="100" x2="23.5" y2="139.2"/>
<line class="st4" x1="59.3" y1="89.2" x2="73.3" y2="139.2"/>
<path class="st4" d="M71.9,134.4c0,0-12.6-2.1-22.2-2.1c-10.4,0-22,2.1-22,2.1"/>
<line class="st4" x1="67.1" y1="114.2" x2="34.9" y2="129.1"/>
<line class="st4" x1="47.1" y1="112.2" x2="66.3" y2="130.5"/>
<path class="st1" d="M112,109.4c-0.2,0.2-0.4,0.5-0.5,0.7c-10.2,13.1-36.7,13.2-56.3-2.2C35.5,92.7,30.2,67.7,40.4,54.6
	c0.1-0.2,0.3-0.4,0.4-0.5L112,109.4z"/>
<path class="st2" d="M97.3,83.4c2.1-20.3-12.8-27.5-28.6-20.8"/>
<path class="st2" d="M111.8,81.6c3.4-33.1-20.8-44.9-46.7-34"/>
<path class="st7" d="M135.5,95c-0.1,0.2-0.3,0.2-0.5,0.1"/>
<path class="st11" d="M123,124.7c-2.5-1.9-3.1-5.5-1.2-8.1l29.1-39.1c1.9-2.5,5.5-3.1,8.1-1.2l18.2,13.5c2.5,1.9,3.1,5.5,1.2,8.1
	L149.2,137c-1.9,2.5-5.5,3.1-8.1,1.2L123,124.7z"/>
<rect x="131" y="91.1" transform="matrix(-0.597 0.8022 -0.8022 -0.597 326.1292 48.3378)" class="st8" width="39.9" height="30"/>
<rect x="135.5" y="85.8" transform="matrix(0.8022 0.597 -0.597 0.8022 93.4731 -68.7158)" class="st5" width="30" height="41.9"/>
<line class="st0" x1="130.2" y1="112.5" x2="150.8" y2="127.9"/>
<rect x="139.4" y="89.6" transform="matrix(0.8022 0.597 -0.597 0.8022 92.3277 -70.3182)" class="st3" width="25.8" height="29.3"/>
<g>
	<circle class="st9" cx="155.6" cy="100.3" r="4.4"/>
	<path class="st9" d="M152.1,101.9c-0.7,2.2-4.1,0.5-5.5,0.1c-2.6-0.8-5,2.8-5,2.8l13.6,10.1c0,0,2.8-3.3,1.3-5.6
		c-0.8-1.3-3.4-4-1.5-5.3"/>
</g>
<path class="st10" d="M162.3,70.3c-7.4-6.9-14.7-3.1-16.8,5.1"/>
<path class="st10" d="M165.9,64c-12.1-11.2-24-5.1-27.4,8.4"/>
</svg>
