<?xml version="1.0" encoding="utf-8"?>
<!-- Generator: Adobe Illustrator 16.0.4, SVG Export Plug-In . SVG Version: 6.00 Build 0)  -->
<!DOCTYPE svg PUBLIC "-//W3C//DTD SVG 1.1//EN" "http://www.w3.org/Graphics/SVG/1.1/DTD/svg11.dtd">
<svg version="1.1" id="Layer_1" xmlns="http://www.w3.org/2000/svg" xmlns:xlink="http://www.w3.org/1999/xlink" x="0px" y="0px"
	 width="491.09px" height="242.781px" viewBox="0 0 491.09 242.781" enable-background="new 0 0 491.09 242.781"
	 xml:space="preserve">
<path fill="#495057" d="M323.83,222.115c0,6.04-4.944,10.98-10.982,10.98H77.801c-6.04,0-10.979-4.94-10.979-10.98V83.719
	c0-6.04,4.938-10.98,10.979-10.98h235.046c6.038,0,10.982,4.94,10.982,10.98V222.115z"/>
<path fill="#495057" d="M354.324,222.202H36.325v13.179h0.137c-0.083,0.313-0.137,0.629-0.137,0.955
	c0,3.545,4.943,6.445,10.979,6.445h296.035c6.043,0,10.984-2.9,10.984-6.445c0-0.325-0.054-0.642-0.132-0.955h0.132V222.202z"/>
<rect x="79.863" y="87.892" fill="#057894" width="230.925" height="130.051"/>
<rect x="109.957" y="87.892" fill="#EBEAE5" width="170.735" height="130.061"/>
<line fill="none" stroke="#A7BDB9" stroke-width="5" stroke-miterlimit="10" x1="118.455" y1="126.416" x2="266.163" y2="126.416"/>
<line fill="none" stroke="#A7BDB9" stroke-width="5" stroke-miterlimit="10" x1="118.455" y1="140.239" x2="266.163" y2="140.239"/>
<line fill="none" stroke="#A7BDB9" stroke-width="5" stroke-miterlimit="10" x1="118.455" y1="153.896" x2="266.163" y2="153.896"/>
<line fill="none" stroke="#A7BDB9" stroke-width="5" stroke-miterlimit="10" x1="118.455" y1="167.719" x2="266.163" y2="167.719"/>
<line fill="none" stroke="#A7BDB9" stroke-width="5" stroke-miterlimit="10" x1="200.001" y1="182.295" x2="273.855" y2="182.295"/>
<line fill="none" stroke="#A7BDB9" stroke-width="5" stroke-miterlimit="10" x1="200.001" y1="196.267" x2="273.855" y2="196.267"/>
<path fill="#495057" d="M264.734,196.267c-5.871,0-10.671-4.804-10.671-10.671V16.976c0-5.868,4.8-10.669,10.671-10.669h128.065
	c5.866,0,10.671,4.801,10.671,10.669v168.62c0,5.867-4.805,10.671-10.671,10.671H264.734z"/>
<path fill="#B9C748" d="M391.369,179.172c0,0.271-0.093,0.481-0.31,0.706c-0.229,0.211-0.44,0.302-0.719,0.304l-123.154-0.002v0.002
	c-0.272-0.002-0.482-0.093-0.714-0.304c-0.213-0.225-0.306-0.436-0.31-0.706V20.193c0.004-0.272,0.097-0.48,0.31-0.704
	c0.231-0.213,0.441-0.302,0.714-0.305H390.34c0.278,0.001,0.489,0.091,0.719,0.305c0.217,0.224,0.31,0.432,0.31,0.704V179.172z"/>
<rect x="118.455" y="94.708" fill="#86BCB6" width="34.147" height="22.022"/>
<rect x="118.455" y="180.182" fill="#86BCB6" width="73.854" height="37.771"/>
<rect x="161.177" y="94.708" fill="#F18162" width="89.801" height="22.023"/>
<line fill="none" stroke="#A7BDB9" stroke-width="5" stroke-miterlimit="10" x1="200.001" y1="210.971" x2="273.855" y2="210.971"/>
<rect x="273.699" y="19.185" fill="#EBEAE5" width="110.135" height="160.998"/>
<line fill="none" stroke="#A7BDB9" stroke-width="5" stroke-miterlimit="10" x1="282.354" y1="57.709" x2="377.926" y2="57.709"/>
<line fill="none" stroke="#A7BDB9" stroke-width="5" stroke-miterlimit="10" x1="282.354" y1="71.531" x2="377.926" y2="71.531"/>
<line fill="none" stroke="#A7BDB9" stroke-width="5" stroke-miterlimit="10" x1="282.354" y1="85.189" x2="377.926" y2="85.189"/>
<line fill="none" stroke="#A7BDB9" stroke-width="5" stroke-miterlimit="10" x1="282.354" y1="99.011" x2="377.926" y2="99.011"/>
<line fill="none" stroke="#A7BDB9" stroke-width="5" stroke-miterlimit="10" x1="282.354" y1="160.564" x2="372.684" y2="160.564"/>
<rect x="282.354" y="26.001" fill="#86BCB6" width="34.147" height="22.022"/>
<rect x="282.354" y="111.475" fill="#86BCB6" width="94.544" height="37.771"/>
<rect x="325.078" y="26.001" fill="#F18162" width="51.82" height="22.022"/>
<line fill="none" stroke="#A7BDB9" stroke-width="5" stroke-miterlimit="10" x1="282.544" y1="174.343" x2="372.875" y2="174.343"/>
<path fill="#495057" d="M384.261,237.746c-6.366,0-11.577-5.208-11.577-11.574v-97.865c0-6.368,5.211-11.576,11.577-11.576h45.43
	c6.368,0,11.579,5.208,11.579,11.576v97.865c0,6.366-5.211,11.574-11.579,11.574H384.261z"/>
<rect x="376.898" y="134.285" fill="#6BC1BF" width="60.16" height="80.115"/>
<rect x="376.898" y="133.903" fill="#EBEAE5" width="60.16" height="84.049"/>
<line fill="none" stroke="#A7BDB9" stroke-width="5" stroke-miterlimit="10" x1="381.245" y1="175.598" x2="432.877" y2="175.598"/>
<line fill="none" stroke="#A7BDB9" stroke-width="5" stroke-miterlimit="10" x1="381.245" y1="186.249" x2="432.877" y2="186.249"/>
<line fill="none" stroke="#A7BDB9" stroke-width="5" stroke-miterlimit="10" x1="381.245" y1="197.794" x2="432.877" y2="197.794"/>
<path fill="#E7D589" d="M491.09,52.407c0,22.264-21.05,40.313-47.018,40.313c-8.995,0-15.266-2.855-23.846,0.827
	c-7.572,3.251-15.672,5.249-22.234-2.077c5.147-4.051,11.206-7.896,7.565-15.95c-3.699-8.178-8.501-12.664-8.501-23.114
	c0.001-22.264,21.05-40.312,47.016-40.312C470.041,12.094,491.09,30.143,491.09,52.407z"/>
<line fill="none" stroke="#A7BDB9" stroke-width="5" stroke-miterlimit="10" x1="381.245" y1="209.501" x2="432.877" y2="209.501"/>
<rect x="381.151" y="138.605" fill="#86BCB6" width="20.435" height="13.177"/>
<rect x="381.004" y="154.594" fill="#F18162" width="51.821" height="13.613"/>
<circle fill="#1DB8E1" stroke="#1CB9E1" stroke-width="3" stroke-miterlimit="10" cx="453.967" cy="39.235" r="9.893"/>
<path fill="#1DB8E1" stroke="#1CB9E1" stroke-width="3" stroke-miterlimit="10" d="M447.67,46.866
	c-4.619,2.656-29.507-17.255-18.906-4.712c-14.251,4.946,3.977,7.062,2.591,8.715c-1.387,1.653-5.889,1.473-5.889,4.122
	c0,3.416,10.011,9.108,12.306,11.664c1.591,1.331-5.711,7.101-18.132,6.971c-1.947,1.146,20.098,7.306,34.327-4.601
	c5.337-4.465,8.027-12.396,4.711-20.707"/>
<path fill="#D7EDEA" d="M0,131.325c0,22.264,21.05,40.313,47.018,40.313c8.995,0,15.266-2.856,23.845,0.827
	c7.572,3.251,15.673,5.25,22.235-2.077c-5.148-4.052-11.208-7.896-7.566-15.95c3.699-8.178,8.501-12.664,8.501-23.113
	c0-22.264-21.05-40.313-47.015-40.313C21.05,91.012,0,109.061,0,131.325z"/>
<path fill="none" stroke="#007895" stroke-width="2" stroke-miterlimit="10" d="M39.249,130.749l8.929-12.44
	c0,0-0.904-10.001,4.542-9.884c5.443,0.118,5.42,8.448,5.42,8.448l-1.356,10.629l15.853,0.349c0,0,3.038,0.256,2.971,3.321
	c-0.068,3.068-3.119,3.406-3.119,3.406s1.104,0.75,1.05,3.227c-0.055,2.477-2.633,3.119-2.633,3.119s0.759,0.854,0.71,3.081
	c-0.05,2.227-2.44,2.776-2.44,2.776s1.112,0.391,1.043,3.558c-0.07,3.166-4.255,4.034-4.255,4.034l-23.86-0.526l-2.516-2.139
	l-2.559-0.217l-0.092,4.164l-15.493-0.342l-1.73-24.995L39.249,130.749z"/>
<line fill="none" stroke="#007895" stroke-width="2" stroke-miterlimit="10" x1="37.028" y1="151.491" x2="37.028" y2="130.659"/>
<circle fill="#007895" cx="32.69" cy="150.893" r="1.982"/>
<g>
	<circle fill="#1DB8E1" cx="454.023" cy="39.235" r="9.893"/>
	<path fill="#1DB8E1" d="M463.446,37.481c1.759,0.109,7.606-3.651,7.973-1.332c-0.366,3.085-4.771,7.291-8.669,7.748"/>
	<path fill="#1DB8E1" d="M447.727,46.866c-4.619,2.656-29.507-17.255-18.906-4.712c-14.251,4.946,3.977,7.062,2.591,8.715
		c-1.387,1.653-5.889,1.473-5.889,4.122c0,3.416,10.011,9.108,12.306,11.664c1.592,1.331-5.711,7.101-18.132,6.971
		c-1.947,1.146,20.098,7.306,34.327-4.601c5.337-4.465,8.027-12.396,4.711-20.707"/>
	<path fill="#1DB8E1" d="M462.75,41.461l4.512,0.263c1.559,0.341,4.157-1.062,3.791,0.47c0,2.707-8.676,3.505-11.496,5.244"/>
</g>
<circle fill="#1B899B" cx="456.68" cy="39.028" r="2.231"/>
<path fill="#DA7F64" d="M200.001,24.844c0,13.721,12.973,24.844,28.975,24.844c5.544,0,9.408-1.76,14.696,0.509
	c4.667,2.004,9.658,3.235,13.702-1.28c-3.172-2.496-6.906-4.866-4.662-9.829c2.28-5.041,5.239-7.804,5.239-14.245
	C257.952,11.123,244.979,0,228.976,0C212.974,0,200.001,11.123,200.001,24.844z"/>
<polygon fill="#F0CEBE" points="239.062,9.395 244.208,13.29 226.347,40.992 213.746,28.521 217.833,23.321 225.452,30.768 "/>
</svg>
