<?xml version="1.0" encoding="utf-8"?>
<!-- Generator: Adobe Illustrator 16.0.4, SVG Export Plug-In . SVG Version: 6.00 Build 0)  -->
<!DOCTYPE svg PUBLIC "-//W3C//DTD SVG 1.1//EN" "http://www.w3.org/Graphics/SVG/1.1/DTD/svg11.dtd">
<svg version="1.1" id="Layer_1" xmlns="http://www.w3.org/2000/svg" xmlns:xlink="http://www.w3.org/1999/xlink" x="0px" y="0px"
	 width="403px" height="237.2px" viewBox="0 0 403 237.2" style="enable-background:new 0 0 403 237.2;" xml:space="preserve">
<g>
	<path style="fill:#C0DEE9;" d="M181.5,111.3c0,14.2-11.5,25.8-25.8,25.8c-14.2,0-25.8-11.5-25.8-25.8c0-14.2,11.5-25.8,25.8-25.8
		C170,85.6,181.5,97.1,181.5,111.3z"/>
	<path style="fill:#C0DEE9;" d="M144.6,131.2c4.1,12.9-17.6,16.7-26,19.8c-15.1,5.5-13.7,30.9-13.7,30.9h100.3
		c0,0,1.4-25.3-13.7-30.9c-8.4-3.1-30.1-6.9-26-19.8"/>
</g>
<g>
	<path style="fill:#D7EDEA;" d="M289.3,113.5c0,14.2-11.5,25.8-25.8,25.8c-14.2,0-25.8-11.5-25.8-25.8c0-14.2,11.5-25.8,25.8-25.8
		C277.7,87.7,289.3,99.3,289.3,113.5z"/>
	<path style="fill:#D7EDEA;" d="M252.4,133.3c4.1,12.9-17.6,16.7-26,19.8c-15.1,5.5-13.7,30.9-13.7,30.9H313c0,0,1.4-25.3-13.7-30.9
		c-8.4-3.1-30.1-6.9-26-19.8"/>
</g>
<ellipse style="fill:#EEE6C4;" cx="201.6" cy="87.1" rx="39.8" ry="30.2"/>
<path style="fill:#DA7F64;" d="M201.6,77.5c0,0-8.8-11-17.7-1.8c-14.2,14.6,17.8,34.7,17.8,34.7s30.2-21,18.6-34.7
	C212.9,67.2,201.6,77.5,201.6,77.5z"/>
<path style="fill:#EEE6C4;" d="M191.2,116c7.1,3.8,8.8,9.1,10.1,12.7c1.3-3.8,3.3-8.7,10.7-12.7"/>
<g>
	<path style="fill:#86BCB6;" d="M137.6,144.9c0,14.2-11.5,25.8-25.8,25.8c-14.2,0-25.8-11.5-25.8-25.8c0-14.2,11.5-25.8,25.8-25.8
		C126.1,119.1,137.6,130.7,137.6,144.9z"/>
	<path style="fill:#86BCB6;" d="M100.7,164.7c4.1,12.9-17.6,16.7-26,19.8c-15.1,5.5-13.7,30.8-13.7,30.8h100.3
		c0,0,1.4-25.3-13.7-30.8c-8.4-3.1-30.1-6.9-26-19.8"/>
</g>
<g>
	<circle style="fill:#E7D58A;" cx="292.4" cy="145.8" r="25.8"/>
	<path style="fill:#E7D58A;" d="M281.3,165.6c4.1,12.9-17.6,16.7-26,19.8c-15.1,5.5-13.7,30.8-13.7,30.8h100.3
		c0,0,1.4-25.3-13.7-30.8c-8.4-3.1-30.1-6.9-26-19.8"/>
</g>
<g>
	<circle style="fill:#DA7F64;" cx="201.6" cy="166.8" r="25.8"/>
	<path style="fill:#DA7F64;" d="M190.5,186.6c4.1,12.9-17.6,16.7-26,19.8c-15.1,5.5-13.7,30.8-13.7,30.8h100.3
		c0,0,1.4-25.3-13.7-30.8c-8.4-3.1-30.1-6.9-26-19.8"/>
</g>
<path style="fill:#C0DEE9;" d="M403,111.2c0,18-17,32.6-38,32.6c-7.3,0-12.3-2.3-19.3,0.7c-6.1,2.6-12.7,4.2-18-1.7
	c4.2-3.3,9.1-6.4,6.1-12.9c-3-6.6-6.9-10.2-6.9-18.7c0-18,17-32.6,38-32.6C386,78.6,403,93.2,403,111.2z"/>
<path style="fill:#DA7F64;" d="M365,98.9c0,0-8.8-11-17.7-1.8c-14.2,14.6,17.8,34.7,17.8,34.7s30.2-21,18.6-34.7
	C376.3,88.6,365,98.9,365,98.9z"/>
<path style="fill:#D7EDEA;" d="M0,111.2c0,18,17,32.6,38,32.6c7.3,0,12.3-2.3,19.3,0.7c6.1,2.6,12.7,4.2,18-1.7
	c-4.2-3.3-9.1-6.4-6.1-12.9c3-6.6,6.9-10.2,6.9-18.7c0-18-17-32.6-38-32.6C17,78.6,0,93.2,0,111.2z"/>
<path style="fill:#DA7F64;" d="M38.1,99.1c0,0-8.8-11-17.7-1.8C6.2,112,38.1,132.1,38.1,132.1s30.2-21,18.6-34.7
	C49.4,88.8,38.1,99.1,38.1,99.1z"/>
<path style="fill:#86BCB6;" d="M49.3,38.1c0,21.1,19.9,38.1,44.5,38.1c8.5,0,14.4-2.7,22.6,0.8c7.2,3.1,14.8,5,21-2
	c-4.9-3.8-10.6-7.5-7.2-15.1c3.5-7.7,8-12,8-21.9C138.2,17.1,118.3,0,93.7,0C69.2,0,49.3,17.1,49.3,38.1z"/>
<path style="fill:none;stroke:#FFFFFF;stroke-width:2;stroke-miterlimit:10;" d="M86.4,37.6l8.4-11.8c0,0-0.9-9.5,4.3-9.4
	c5.2,0.1,5.1,8,5.1,8L103,34.5l15,0.3c0,0,2.9,0.2,2.8,3.1c-0.1,2.9-3,3.2-3,3.2s1,0.7,1,3.1c-0.1,2.3-2.5,3-2.5,3s0.7,0.8,0.7,2.9
	s-2.3,2.6-2.3,2.6s1.1,0.4,1,3.4c-0.1,3-4,3.8-4,3.8l-22.6-0.5l-2.4-2l-2.4-0.2l-0.1,3.9l-14.7-0.3l-1.6-23.6L86.4,37.6z"/>
<line style="fill:none;stroke:#FFFFFF;stroke-width:2;stroke-miterlimit:10;" x1="84.3" y1="57.2" x2="84.3" y2="37.5"/>
<circle style="fill:#FFFFFF;" cx="80.2" cy="56.7" r="1.9"/>
<path style="fill:#DA7F64;" d="M365.2,38.1c0,21.1-19.9,38.1-44.5,38.1c-8.5,0-14.4-2.7-22.6,0.8c-7.2,3.1-14.8,5-21-2
	c4.9-3.8,10.6-7.5,7.2-15.1c-3.5-7.7-8-12-8-21.9c0-21.1,19.9-38.1,44.5-38.1C345.3,0,365.2,17.1,365.2,38.1z"/>
<polygon style="fill:none;stroke:#FFFFFF;stroke-width:2;stroke-miterlimit:10;" points="318.1,12.2 325.7,27.6 342.8,30.1 
	330.4,42.1 333.3,59 318.1,51 302.9,59 305.8,42.1 293.5,30.1 310.5,27.6 "/>
</svg>
