<?xml version="1.0" encoding="utf-8"?>
<!-- Generator: Adobe Illustrator 16.0.4, SVG Export Plug-In . SVG Version: 6.00 Build 0)  -->
<!DOCTYPE svg PUBLIC "-//W3C//DTD SVG 1.1//EN" "http://www.w3.org/Graphics/SVG/1.1/DTD/svg11.dtd">
<svg version="1.1" id="Layer_1" xmlns="http://www.w3.org/2000/svg" xmlns:xlink="http://www.w3.org/1999/xlink" x="0px" y="0px"
	 width="195px" height="195px" viewBox="0 0 195 195" enable-background="new 0 0 195 195" xml:space="preserve">
<circle fill="#432F64" cx="97.5" cy="97.5" r="97.5"/>
<rect x="97.26" y="73.496" fill="#229DD2" width="76.02" height="55.814"/>
<rect x="103.321" y="99.787" fill="#D7EDEA" width="20.978" height="7.607"/>
<rect x="102.829" y="112.055" fill="#D7EDEA" width="21.47" height="7.607"/>
<rect x="129.342" y="112.25" fill="#39BEC1" width="10.777" height="17.256"/>
<rect x="130.539" y="99.918" fill="#D7EDEA" width="8.379" height="7.607"/>
<rect x="94.306" y="71.459" fill="#39BEC1" width="81.774" height="2.31"/>
<rect x="102.829" y="88.869" fill="#D7EDEA" width="21.47" height="7.605"/>
<rect x="130.541" y="89.064" fill="#D7EDEA" width="8.379" height="7.607"/>
<rect x="102.829" y="77.741" fill="#D7EDEA" width="21.47" height="7.606"/>
<rect x="130.541" y="77.936" fill="#D7EDEA" width="8.379" height="7.606"/>
<rect x="112.65" y="67.547" fill="#229DD2" width="45.236" height="4.322"/>
<rect x="94.306" y="126.559" fill="#229DD2" width="81.774" height="3.592"/>
<rect x="146.207" y="99.787" fill="#D7EDEA" width="20.979" height="7.607"/>
<rect x="145.715" y="112.055" fill="#D7EDEA" width="21.471" height="7.607"/>
<rect x="145.715" y="88.869" fill="#D7EDEA" width="21.471" height="7.605"/>
<rect x="145.715" y="77.741" fill="#D7EDEA" width="21.471" height="7.606"/>
<rect x="69.644" y="98.701" fill="#DC8067" width="11.196" height="12.459"/>
<polygon fill="#DC8067" points="80.368,94.333 92.594,105.35 80.368,115.527 "/>
<rect x="20.55" y="74.093" fill="#39BEC1" width="45.161" height="55.815"/>
<rect x="26.611" y="100.385" fill="#D7EDEA" width="8.38" height="7.605"/>
<rect x="38.94" y="100.385" fill="#D7EDEA" width="8.38" height="7.607"/>
<rect x="26.119" y="112.652" fill="#D7EDEA" width="8.38" height="7.605"/>
<rect x="38.94" y="112.652" fill="#D7EDEA" width="8.38" height="7.605"/>
<rect x="51.03" y="112.652" fill="#229DD2" width="10.778" height="17.256"/>
<rect x="51.03" y="100.385" fill="#D7EDEA" width="8.38" height="7.607"/>
<rect x="17.596" y="72.056" fill="#39BEC1" width="49.858" height="2.31"/>
<rect x="26.119" y="89.466" fill="#D7EDEA" width="8.38" height="7.606"/>
<rect x="38.448" y="89.466" fill="#D7EDEA" width="8.38" height="7.606"/>
<rect x="50.538" y="89.466" fill="#D7EDEA" width="8.38" height="7.606"/>
<rect x="26.119" y="78.338" fill="#D7EDEA" width="8.38" height="7.606"/>
<rect x="38.448" y="78.338" fill="#D7EDEA" width="8.38" height="7.606"/>
<rect x="50.538" y="78.338" fill="#D7EDEA" width="8.38" height="7.606"/>
</svg>
