<?xml version="1.0" encoding="utf-8"?>
<!-- Generator: Adobe Illustrator 16.0.4, SVG Export Plug-In . SVG Version: 6.00 Build 0)  -->
<!DOCTYPE svg PUBLIC "-//W3C//DTD SVG 1.1//EN" "http://www.w3.org/Graphics/SVG/1.1/DTD/svg11.dtd">
<svg version="1.1" id="Layer_1" xmlns="http://www.w3.org/2000/svg" xmlns:xlink="http://www.w3.org/1999/xlink" x="0px" y="0px"
	 width="195px" height="195px" viewBox="0 0 195 195" enable-background="new 0 0 195 195" xml:space="preserve">
<circle fill="#432F64" cx="97.5" cy="97.5" r="97.5"/>
<circle fill="#229DD2" cx="96.844" cy="52.767" r="9.405"/>
<path fill="#229DD2" d="M94.188,65.894c-2.5,0.537-6.995-0.572-8.192-1.141c-4.014-1.904-8.275-4.131-12.06-6.469
	c-8.099-5.003-17.899-12.713-27.3-6.057c-4.42,3.13-8.488,6.736-13.148,9.487c-4.512,2.662-9.535,4.619-13.912,7.305
	c-3.643,2.234-3.915,6.804-0.227,9.515c4.432,3.255,15.534-0.171,16.178-0.372c-1.069,2.358-1.29,7.967,3.074,9.345
	c6.858,2.165,10.466-1.556,15.172-3.764c-0.333,4.92,5.087,5.601,7.484,4.92c4.268-1.212,7.005-2.661,10.673-4.761
	c6.939-3.976,16.524-1.853,22.257,3.002"/>
<path fill="#229DD2" d="M93.812,61.621v100.273v0.703c0,0,3.032,6.231,6.064,0v-0.703V61.621"/>
<path fill="#229DD2" d="M99.432,65.894c2.5,0.537,6.995-0.572,8.193-1.141c4.015-1.904,8.274-4.131,12.061-6.469
	c8.098-5.003,17.898-12.713,27.299-6.057c4.421,3.13,8.488,6.736,13.148,9.487c4.512,2.662,9.535,4.62,13.912,7.306
	c3.643,2.234,3.914,6.804,0.227,9.515c-4.432,3.255-15.534-0.171-16.178-0.372c1.069,2.358,1.289,7.967-3.075,9.345
	c-6.857,2.165-10.465-1.556-15.172-3.764c0.334,4.92-5.087,5.601-7.484,4.92c-4.267-1.212-7.006-2.661-10.673-4.761
	c-6.939-3.976-16.524-1.853-22.258,3.002"/>
<path fill="#39BEC1" d="M80.434,164.217c2.641-16.064,18.5-18.048,27.977-23.291c6.476-3.582,10.198-10.473,6.2-18.741
	c-6.166-12.759-35.734-17.793-37.485-23.153c-1.228-3.76,6.146,0.479,8.417,0.507c1.828,0.021,4.599-0.767,5.691-2.569
	c1.151-1.9,0.291-3.466-1.796-5.104c0,0-3.078-2.979-4.966-4.038c-2.348-1.313-10.4-3.37-15.021,0.591
	c-1.711,1.467-2.787,4.79-2.797,7.122c-0.026,6.246,2.315,10.15,5.788,12.724c5.89,4.365,27.839,12.785,31.284,15.986
	c3.903,3.629,3.213,9.682-2.196,12.402C96.109,139.382,72.165,143.683,80.434,164.217z"/>
<path fill="#39BEC1" d="M112.956,164.217c-2.64-16.064-18.5-18.048-27.976-23.291c-6.477-3.582-10.198-10.473-6.202-18.741
	c6.167-12.759,35.736-17.793,37.486-23.153c1.228-3.76-6.145,0.479-8.416,0.507c-1.827,0.021-4.6-0.767-5.69-2.569
	c-1.152-1.9-0.291-3.466,1.796-5.104c0,0,3.076-2.979,4.966-4.038c2.347-1.313,10.4-3.37,15.021,0.591
	c1.711,1.467,2.786,4.79,2.797,7.122c0.026,6.246-2.315,10.15-5.788,12.724c-5.89,4.365-27.838,12.785-31.284,15.986
	c-3.905,3.629-3.213,9.682,2.196,12.402C97.281,139.382,121.226,143.683,112.956,164.217z"/>
</svg>
