<?xml version="1.0" encoding="utf-8"?>
<!-- Generator: Adobe Illustrator 16.0.4, SVG Export Plug-In . SVG Version: 6.00 Build 0)  -->
<!DOCTYPE svg PUBLIC "-//W3C//DTD SVG 1.1//EN" "http://www.w3.org/Graphics/SVG/1.1/DTD/svg11.dtd">
<svg version="1.1" id="Layer_1" xmlns="http://www.w3.org/2000/svg" xmlns:xlink="http://www.w3.org/1999/xlink" x="0px" y="0px"
	 width="195px" height="195px" viewBox="0 0 195 195" enable-background="new 0 0 195 195" xml:space="preserve">
<circle fill="#432F64" cx="97.5" cy="97.5" r="97.5"/>
<line fill="none" stroke="#39BEC1" stroke-width="5" stroke-linecap="round" stroke-miterlimit="10" x1="94.691" y1="34.681" x2="94.2" y2="146.091"/>
<path fill="#229DD2" d="M28.606,77.999c0,0,13.716-36.925,66.085-37.632c46.56-0.629,63.803,37.003,63.803,37.003
	s-2.265-3.901-20.012-3.398c-17.746,0.503-18.627,5.538-18.627,5.538s1.762-3.776-26.305-3.901
	c-28.067-0.126-33.479,4.819-33.479,4.819s-1.133-4.945-14.475-5.449C32.256,74.474,28.606,77.999,28.606,77.999z"/>
<path fill="none" stroke="#39BEC1" stroke-width="5" stroke-linecap="round" stroke-miterlimit="10" d="M107.144,140.522
	c0,0,5.575,9.116-4.908,12.334c-7.791,2.392-8.036-6.167-8.036-6.167"/>
<rect x="44.211" y="92.906" fill="#DA7F64" width="5.987" height="9.585"/>
<polygon fill="#86BCB6" points="83.432,134.139 40.278,134.139 40.278,104.881 61.854,88.83 83.432,104.881 "/>
<rect x="46.07" y="105.927" fill="#D7EDEA" width="8.008" height="7.268"/>
<rect x="57.851" y="105.927" fill="#D7EDEA" width="8.008" height="7.269"/>
<rect x="45.6" y="117.649" fill="#D7EDEA" width="8.008" height="7.268"/>
<rect x="57.851" y="117.649" fill="#D7EDEA" width="8.008" height="7.268"/>
<rect x="69.404" y="117.649" fill="#DA7F64" width="10.299" height="16.489"/>
<rect x="69.404" y="105.927" fill="#D7EDEA" width="8.007" height="7.269"/>
<polyline fill="#DA7F64" points="37.436,105.046 61.854,87.135 86.191,104.912 84.986,106.449 61.854,89.632 38.74,106.449 "/>
<path fill="#DC8067" d="M160.333,133.553c0,0,3.354-0.458,4.758-0.814c1.403-0.356,1.248-3.536,1.248-3.536s0.312-1.539-0.546-3.176
	c-0.857-1.637-0.429-1.208-1.403-2.027c-0.975-0.819-11.791-3.587-13.023-3.587s-1.56,0-1.56,0l-11.932-6.355
	c0,0-2.54-1.582-9.903-1.649c-7.363-0.067-9.436,0.831-9.436,0.831l-12.548,5.536c0,0-3.566-0.039-3.951,0.116
	c-0.384,0.157-0.957,1.365-0.957,1.365l-0.363,3.978l-0.702,1.13c0,0,0.187,5.884,0.859,6.019c0.671,0.134,6.762,1.356,6.762,1.356
	s-0.759-6.555,5.792-7.14c6.55-0.585,6.199,7.408,6.199,7.408l28.932,0.351c0,0-0.468-7.915,6.395-7.915
	C161.815,125.443,160.333,133.553,160.333,133.553z"/>
<path fill="#D7EDEA" d="M128.542,119.634c0.192,0-0.493-4.64-0.571-5.401c-0.078-0.761-6.356,0.338-7.682,0.763
	c-1.325,0.426-2.521,0.826-2.651,1.668c-0.13,0.842-0.74,2.487-0.391,2.501S128.35,119.634,128.542,119.634z"/>
<path fill="#D7EDEA" d="M130.266,114.233c0.062-0.184,1.625-0.259,4.984,0.413c5.417,1.083,10.062,5.042,10.062,5.042
	s-13.43,0-13.979-0.104S130.203,114.417,130.266,114.233z"/>
<circle fill="#005D71" cx="113.619" cy="131.158" r="4.854"/>
<circle fill="#005D71" cx="154.744" cy="131.383" r="4.854"/>
<g>
</g>
<g>
</g>
<g>
</g>
<g>
</g>
<g>
</g>
<g>
</g>
<g>
</g>
<g>
</g>
<g>
</g>
<g>
</g>
<g>
</g>
<g>
</g>
<g>
</g>
<g>
</g>
<g>
</g>
</svg>
