<?xml version="1.0" encoding="utf-8"?>
<!-- Generator: Adobe Illustrator 16.0.4, SVG Export Plug-In . SVG Version: 6.00 Build 0)  -->
<!DOCTYPE svg PUBLIC "-//W3C//DTD SVG 1.1//EN" "http://www.w3.org/Graphics/SVG/1.1/DTD/svg11.dtd">
<svg version="1.1" id="Layer_1" xmlns="http://www.w3.org/2000/svg" xmlns:xlink="http://www.w3.org/1999/xlink" x="0px" y="0px"
	 width="195px" height="195px" viewBox="0 0 195 195" enable-background="new 0 0 195 195" xml:space="preserve">
<circle fill="#432F64" cx="97.5" cy="97.5" r="97.5"/>
<g>
	<path fill="#229DD2" d="M155.513,63.115c-4.88-3.373-13.831-7.545-24.996-4.962C119.353,60.735,59.822,75.751,54.684,75.7
		c-5.139-0.053-25.449-16.547-25.449-16.547l-7.197,1.875L34.873,82.03c0,0-4.426,1.473-3.644,4.472
		c1.37,5.251,31.807,7.736,36.004,6.645c9.899-2.578,12.299-3.202,12.299-3.202l2.006,5.242l-14.335,33.523l10.163-2.645
		l40.266-46.04c0,0,26.987-7.007,28.787-7.476C148.22,72.08,160.392,66.49,155.513,63.115z"/>
	<polygon fill="#229DD2" points="59.334,49.877 69.234,47.3 106.998,65.015 78.199,72.513 	"/>
	<circle fill="#39BEC1" cx="78.016" cy="80.723" r="3.177"/>
	<circle fill="#39BEC1" cx="87.691" cy="78.205" r="3.178"/>
	<circle fill="#39BEC1" cx="98.25" cy="75.456" r="3.177"/>
	<circle fill="#39BEC1" cx="107.925" cy="72.937" r="3.177"/>
	<circle fill="#39BEC1" cx="118.198" cy="70.262" r="3.177"/>
	<path fill="#39BEC1" d="M141.488,60.915c-2.496,0.254-6.495,2.737-7.382,4.25c-0.888,1.511,0.896,3.438,2.983,3.462
		c2.088,0.022,9.145-4.868,9.999-5.887C147.944,61.722,143.983,60.661,141.488,60.915z"/>
</g>
<g>
	<path fill="#005D71" d="M172.133,146.029c0,1.541-1.249,2.79-2.79,2.79H97.734c-1.541,0-2.79-1.249-2.79-2.79V99.065
		c0-1.541,1.249-2.79,2.79-2.79h71.608c1.541,0,2.79,1.249,2.79,2.79V146.029z"/>
	<path fill="none" stroke="#005D71" stroke-width="5" stroke-miterlimit="10" d="M149.231,107.519c0,0.626-0.507,1.134-1.134,1.134
		h-29.118c-0.627,0-1.134-0.508-1.134-1.134V88.421c0-0.626,0.507-1.134,1.134-1.134h29.118c0.627,0,1.134,0.508,1.134,1.134
		V107.519z"/>
	<path fill="#005D71" d="M139.394,90.176c0,0.159-0.178,0.288-0.397,0.288h-10.214c-0.22,0-0.397-0.129-0.397-0.288v-4.848
		c0-0.159,0.178-0.288,0.397-0.288h10.214c0.22,0,0.397,0.129,0.397,0.288V90.176z"/>
	<path fill="#DA7F64" stroke="#EFCCBE" stroke-width="2" stroke-miterlimit="10" d="M160.864,119.108
		c0.209,1.527-0.858,2.934-2.387,3.144l-16.738,2.291c-1.526,0.209-2.934-0.859-3.143-2.386l-0.998-7.294
		c-0.208-1.527,0.858-2.933,2.386-3.142l16.739-2.293c1.526-0.209,2.934,0.859,3.143,2.386L160.864,119.108z"/>
	
		<ellipse transform="matrix(0.9548 0.2971 -0.2971 0.9548 43.8161 -28.6777)" fill="#E7D58A" stroke="#86BCB5" stroke-width="2" stroke-miterlimit="10" cx="116.257" cy="129.815" rx="11.237" ry="5.735"/>
</g>
</svg>
