<?xml version="1.0" encoding="utf-8"?>
<!-- Generator: Adobe Illustrator 16.0.4, SVG Export Plug-In . SVG Version: 6.00 Build 0)  -->
<!DOCTYPE svg PUBLIC "-//W3C//DTD SVG 1.1//EN" "http://www.w3.org/Graphics/SVG/1.1/DTD/svg11.dtd">
<svg version="1.1" id="Layer_1" xmlns="http://www.w3.org/2000/svg" xmlns:xlink="http://www.w3.org/1999/xlink" x="0px" y="0px"
	 width="487.7px" height="351.3px" viewBox="0 0 487.7 351.3" style="enable-background:new 0 0 487.7 351.3;" xml:space="preserve"
	>
<ellipse style="fill:#C0DEE9;" cx="444" cy="38.4" rx="43.6" ry="33.1"/>
<ellipse style="fill:#D7EDEA;" cx="52.8" cy="40.1" rx="52.8" ry="40.1"/>
<line style="fill:none;stroke:#005E72;stroke-width:4;stroke-miterlimit:10;stroke-dasharray:12;" x1="138.8" y1="239.6" x2="139" y2="118.7"/>
<line style="fill:none;stroke:#005E72;stroke-width:4;stroke-miterlimit:10;stroke-dasharray:12;" x1="367.7" y1="259.4" x2="367.9" y2="138.4"/>
<line style="fill:none;stroke:#005E72;stroke-width:4;stroke-miterlimit:10;stroke-dasharray:12;" x1="249" y1="277.3" x2="249.1" y2="156.3"/>
<ellipse style="fill:#EEE6C4;" cx="245.1" cy="41.4" rx="45.4" ry="34.5"/>
<g>
	<path style="fill:#86BCB6;" d="M167.8,83.7c0,15.6-12.7,28.3-28.3,28.3c-15.6,0-28.3-12.7-28.3-28.3c0-15.6,12.7-28.3,28.3-28.3
		C155.2,55.4,167.8,68.1,167.8,83.7z"/>
	<path style="fill:#86BCB6;" d="M127.4,105.5c4.5,14.1-19.3,18.3-28.5,21.7c-16.6,6.1-15,33.9-15,33.9h110c0,0,1.6-27.8-15-33.9
		c-9.3-3.4-33-7.6-28.5-21.7"/>
</g>
<g>
	<path style="fill:#E7D58A;" d="M398.9,84.7c0,15.6-12.7,28.3-28.3,28.3c-15.6,0-28.3-12.7-28.3-28.3c0-15.6,12.7-28.3,28.3-28.3
		C386.2,56.4,398.9,69.1,398.9,84.7z"/>
	<path style="fill:#E7D58A;" d="M358.4,106.5c4.5,14.1-19.3,18.3-28.5,21.7c-16.6,6.1-15,33.9-15,33.9h110c0,0,1.6-27.8-15-33.9
		c-9.3-3.4-33-7.6-28.5-21.7"/>
</g>
<path style="fill:#495057;" d="M126.2,317.2c-3.7,0-6.7-3-6.7-6.7v-56.6c0-3.7,3-6.7,6.7-6.7h26.3c3.7,0,6.7,3,6.7,6.7v56.6
	c0,3.7-3,6.7-6.7,6.7H126.2z"/>
<rect x="121.9" y="257.3" style="fill:#6BC1BF;" width="34.8" height="46.3"/>
<rect x="121.9" y="257.1" style="fill:#EBEAE5;" width="34.8" height="48.6"/>
<line style="fill:none;stroke:#A7BDB9;stroke-width:4;stroke-miterlimit:10;" x1="124.4" y1="287.4" x2="154.3" y2="287.4"/>
<line style="fill:none;stroke:#A7BDB9;stroke-width:4;stroke-miterlimit:10;" x1="124.4" y1="294.1" x2="154.3" y2="294.1"/>
<line style="fill:none;stroke:#A7BDB9;stroke-width:4;stroke-miterlimit:10;" x1="124.4" y1="300.8" x2="154.3" y2="300.8"/>
<g>
	<circle style="fill:#DA7F64;" cx="249" cy="129.6" r="28.3"/>
	<path style="fill:#DA7F64;" d="M236.9,151.4c4.5,14.1-19.3,18.3-28.5,21.7c-16.6,6.1-15,33.9-15,33.9h110c0,0,1.6-27.8-15-33.9
		c-9.3-3.4-33-7.6-28.5-21.7"/>
</g>
<circle style="fill:#229DD2;" cx="139" cy="262" r="1.7"/>
<path style="fill:#229DD2;" d="M138.5,264.4c-0.5,0.1-1.3-0.1-1.5-0.2c-0.7-0.4-1.5-0.8-2.2-1.2c-1.5-0.9-3.3-2.3-5-1.1
	c-0.8,0.6-1.6,1.2-2.4,1.7c-0.8,0.5-1.8,0.8-2.6,1.3c-0.7,0.4-0.7,1.3,0,1.8c0.8,0.6,2.9,0,3-0.1c-0.2,0.4-0.2,1.5,0.6,1.7
	c1.3,0.4,1.9-0.3,2.8-0.7c-0.1,0.9,0.9,1,1.4,0.9c0.8-0.2,1.3-0.5,2-0.9c1.3-0.7,3-0.3,4.1,0.6"/>
<path style="fill:#229DD2;" d="M138.5,263.6v18.4v0.1c0,0,0.6,1.1,1.1,0v-0.1v-18.4"/>
<path style="fill:#229DD2;" d="M139.5,264.4c0.5,0.1,1.3-0.1,1.5-0.2c0.7-0.4,1.5-0.8,2.2-1.2c1.5-0.9,3.3-2.3,5-1.1
	c0.8,0.6,1.6,1.2,2.4,1.7c0.8,0.5,1.8,0.8,2.6,1.3c0.7,0.4,0.7,1.3,0,1.8c-0.8,0.6-2.9,0-3-0.1c0.2,0.4,0.2,1.5-0.6,1.7
	c-1.3,0.4-1.9-0.3-2.8-0.7c0.1,0.9-0.9,1-1.4,0.9c-0.8-0.2-1.3-0.5-2-0.9c-1.3-0.7-3-0.3-4.1,0.6"/>
<path style="fill:#39BEC1;" d="M136,282.5c0.5-3,3.4-3.3,5.1-4.3c1.2-0.7,1.9-1.9,1.1-3.4c-1.1-2.3-6.6-3.3-6.9-4.3
	c-0.2-0.7,1.1,0.1,1.5,0.1c0.3,0,0.8-0.1,1-0.5c0.2-0.3,0.1-0.6-0.3-0.9c0,0-0.6-0.5-0.9-0.7c-0.4-0.2-1.9-0.6-2.8,0.1
	c-0.3,0.3-0.5,0.9-0.5,1.3c0,1.1,0.4,1.9,1.1,2.3c1.1,0.8,5.1,2.4,5.8,2.9c0.7,0.7,0.6,1.8-0.4,2.3
	C138.9,277.9,134.5,278.7,136,282.5z"/>
<path style="fill:#39BEC1;" d="M142,282.5c-0.5-3-3.4-3.3-5.1-4.3c-1.2-0.7-1.9-1.9-1.1-3.4c1.1-2.3,6.6-3.3,6.9-4.3
	c0.2-0.7-1.1,0.1-1.5,0.1c-0.3,0-0.8-0.1-1-0.5c-0.2-0.3-0.1-0.6,0.3-0.9c0,0,0.6-0.5,0.9-0.7c0.4-0.2,1.9-0.6,2.8,0.1
	c0.3,0.3,0.5,0.9,0.5,1.3c0,1.1-0.4,1.9-1.1,2.3c-1.1,0.8-5.1,2.4-5.8,2.9c-0.7,0.7-0.6,1.8,0.4,2.3
	C139.1,277.9,143.5,278.7,142,282.5z"/>
<circle style="fill:#229DD2;" cx="51.5" cy="17.9" r="4.5"/>
<path style="fill:#229DD2;" d="M50.3,24.2c-1.2,0.3-3.4-0.3-4-0.6c-1.9-0.9-4-2-5.8-3.1c-3.9-2.4-8.6-6.1-13.2-2.9
	c-2.1,1.5-4.1,3.3-6.4,4.6c-2.2,1.3-4.6,2.2-6.7,3.5c-1.8,1.1-1.9,3.3-0.1,4.6c2.1,1.6,7.5-0.1,7.8-0.2c-0.5,1.1-0.6,3.9,1.5,4.5
	c3.3,1,5.1-0.8,7.3-1.8c-0.2,2.4,2.5,2.7,3.6,2.4c2.1-0.6,3.4-1.3,5.2-2.3c3.4-1.9,8-0.9,10.8,1.4"/>
<path style="fill:#229DD2;" d="M50.1,22.2v48.5V71c0,0,1.5,3,2.9,0v-0.3V22.2"/>
<path style="fill:#229DD2;" d="M52.8,24.2c1.2,0.3,3.4-0.3,4-0.6c1.9-0.9,4-2,5.8-3.1c3.9-2.4,8.6-6.1,13.2-2.9
	c2.1,1.5,4.1,3.3,6.4,4.6c2.2,1.3,4.6,2.2,6.7,3.5c1.8,1.1,1.9,3.3,0.1,4.6c-2.1,1.6-7.5-0.1-7.8-0.2c0.5,1.1,0.6,3.9-1.5,4.5
	c-3.3,1-5.1-0.8-7.3-1.8c0.2,2.4-2.5,2.7-3.6,2.4c-2.1-0.6-3.4-1.3-5.2-2.3c-3.4-1.9-8-0.9-10.8,1.4"/>
<path style="fill:#39BEC1;" d="M43.6,71.7c1.3-7.8,8.9-8.7,13.5-11.3c3.1-1.7,4.9-5.1,3-9.1c-3-6.2-17.3-8.6-18.1-11.2
	c-0.6-1.8,3,0.2,4.1,0.2c0.9,0,2.2-0.4,2.7-1.2c0.6-0.9,0.1-1.7-0.9-2.5c0,0-1.5-1.4-2.4-2c-1.1-0.6-5-1.6-7.3,0.3
	c-0.8,0.7-1.3,2.3-1.4,3.4c0,3,1.1,4.9,2.8,6.1c2.8,2.1,13.5,6.2,15.1,7.7c1.9,1.8,1.6,4.7-1.1,6C51.2,59.7,39.6,61.8,43.6,71.7z"/>
<path style="fill:#39BEC1;" d="M59.3,71.7C58,64,50.4,63,45.8,60.5c-3.1-1.7-4.9-5.1-3-9.1c3-6.2,17.3-8.6,18.1-11.2
	c0.6-1.8-3,0.2-4.1,0.2c-0.9,0-2.2-0.4-2.8-1.2c-0.6-0.9-0.1-1.7,0.9-2.5c0,0,1.5-1.4,2.4-2c1.1-0.6,5-1.6,7.3,0.3
	c0.8,0.7,1.3,2.3,1.4,3.4c0,3-1.1,4.9-2.8,6.1c-2.8,2.1-13.5,6.2-15.1,7.7c-1.9,1.8-1.5,4.7,1.1,6C51.8,59.7,63.3,61.8,59.3,71.7z"
	/>
<path style="fill:#495057;" d="M425.1,304.3c0,2.6-2.1,4.7-4.7,4.7H318.8c-2.6,0-4.7-2.1-4.7-4.7v-59.8c0-2.6,2.1-4.7,4.7-4.7h101.5
	c2.6,0,4.7,2.1,4.7,4.7V304.3z"/>
<path style="fill:#495057;" d="M438.3,304.3H300.9v5.7h0.1c0,0.1-0.1,0.3-0.1,0.4c0,1.5,2.1,2.8,4.7,2.8h127.9
	c2.6,0,4.7-1.3,4.7-2.8c0-0.1,0-0.3-0.1-0.4h0.1V304.3z"/>
<rect x="319.7" y="246.3" style="fill:#86BCB6;" width="99.8" height="56.2"/>
<rect x="332.7" y="246.3" style="fill:#EBEAE5;" width="73.8" height="56.2"/>
<line style="fill:none;stroke:#A7BDB9;stroke-width:3;stroke-miterlimit:10;" x1="335.8" y1="251.2" x2="403" y2="251.2"/>
<line style="fill:none;stroke:#A7BDB9;stroke-width:3;stroke-miterlimit:10;" x1="371.6" y1="287.1" x2="403.5" y2="287.1"/>
<line style="fill:none;stroke:#A7BDB9;stroke-width:3;stroke-miterlimit:10;" x1="371.6" y1="293.1" x2="403.5" y2="293.1"/>
<rect x="336.4" y="286.2" style="fill:#E7D58A;" width="31.9" height="16.3"/>
<line style="fill:none;stroke:#A7BDB9;stroke-width:3;stroke-miterlimit:10;" x1="371.6" y1="299.5" x2="403.5" y2="299.5"/>
<g>
	<path style="fill:#229DD2;" d="M477.5,32.1c-2.3-1.6-6.6-3.6-12-2.4c-5.4,1.2-34,8.5-36.5,8.4c-2.5,0-12.2-8-12.2-8l-3.5,0.9
		l6.2,10.1c0,0-2.1,0.7-1.8,2.2c0.7,2.5,15.3,3.7,17.3,3.2c4.8-1.2,5.9-1.5,5.9-1.5l1,2.5l-6.9,16.1l4.9-1.3l19.4-22.1
		c0,0,13-3.4,13.8-3.6C474,36.4,479.9,33.8,477.5,32.1z"/>
	<polygon style="fill:#229DD2;" points="431.3,25.8 436.1,24.5 454.2,33 440.4,36.6 	"/>
	<circle style="fill:#39BEC1;" cx="440.3" cy="40.6" r="1.5"/>
	<path style="fill:#39BEC1;" d="M446.4,39c0.2,0.8-0.3,1.7-1.1,1.9c-0.8,0.2-1.7-0.3-1.9-1.1c-0.2-0.8,0.3-1.7,1.1-1.9
		C445.4,37.7,446.2,38.2,446.4,39z"/>
	<circle style="fill:#39BEC1;" cx="450" cy="38.1" r="1.5"/>
	<circle style="fill:#39BEC1;" cx="454.7" cy="36.9" r="1.5"/>
	<circle style="fill:#39BEC1;" cx="459.6" cy="35.6" r="1.5"/>
	<path style="fill:#39BEC1;" d="M470.8,31.1c-1.2,0.1-3.1,1.3-3.5,2c-0.4,0.7,0.4,1.7,1.4,1.7c1,0,4.4-2.3,4.8-2.8
		C473.9,31.5,472,31,470.8,31.1z"/>
</g>
<g>
	<path style="fill:#229DD2;" d="M391,261.5c-1.7-1.2-4.9-2.7-8.9-1.8c-4,0.9-25.3,6.3-27.1,6.3c-1.8,0-9.1-5.9-9.1-5.9l-2.6,0.7
		l4.6,7.5c0,0-1.6,0.5-1.3,1.6c0.5,1.9,11.4,2.8,12.9,2.4c3.5-0.9,4.4-1.1,4.4-1.1l0.7,1.9l-5.1,12l3.6-0.9l14.4-16.5
		c0,0,9.7-2.5,10.3-2.7C388.3,264.7,392.7,262.7,391,261.5z"/>
	<polygon style="fill:#229DD2;" points="356.6,256.8 360.1,255.9 373.6,262.2 363.3,264.9 	"/>
	<circle style="fill:#39BEC1;" cx="363.2" cy="267.8" r="1.1"/>
	<circle style="fill:#39BEC1;" cx="366.7" cy="266.9" r="1.1"/>
	<circle style="fill:#39BEC1;" cx="370.5" cy="266" r="1.1"/>
	<circle style="fill:#39BEC1;" cx="373.9" cy="265.1" r="1.1"/>
	<circle style="fill:#39BEC1;" cx="377.6" cy="264.1" r="1.1"/>
	<path style="fill:#39BEC1;" d="M385.9,260.8c-0.9,0.1-2.3,1-2.6,1.5c-0.3,0.5,0.3,1.2,1.1,1.2c0.7,0,3.3-1.7,3.6-2.1
		C388.2,261,386.8,260.7,385.9,260.8z"/>
</g>
<circle style="fill:#E7D58A;" cx="425.1" cy="269.6" r="13.8"/>
<polygon style="fill:#229DD2;" points="431,260.6 433.9,262.8 423.8,278.6 416.6,271.5 418.9,268.5 423.3,272.8 "/>
<circle style="fill:#229DD2;" cx="115.8" cy="285.1" r="11.2"/>
<polygon style="fill:#E7D58A;" points="120.5,277.8 122.9,279.6 114.7,292.4 108.8,286.7 110.7,284.3 114.3,287.7 "/>
<path style="fill:#495057;" d="M215.8,351.3c-3,0-5.4-2.4-5.4-5.4v-85.7c0-3,2.4-5.4,5.4-5.4h65.1c3,0,5.4,2.4,5.4,5.4v85.7
	c0,3-2.4,5.4-5.4,5.4H215.8z"/>
<path style="fill:#B9C748;" d="M280.1,342.6c0,0.1,0,0.2-0.2,0.4c-0.1,0.1-0.2,0.2-0.4,0.2l-62.6,0v0c-0.1,0-0.2,0-0.4-0.2
	c-0.1-0.1-0.2-0.2-0.2-0.4v-80.8c0-0.1,0-0.2,0.2-0.4c0.1-0.1,0.2-0.2,0.4-0.2h62.6c0.1,0,0.2,0,0.4,0.2c0.1,0.1,0.2,0.2,0.2,0.4
	V342.6z"/>
<rect x="220.4" y="261.4" style="fill:#EBEAE5;" width="56" height="81.8"/>
<line style="fill:none;stroke:#A7BDB9;stroke-width:4;stroke-miterlimit:10;" x1="224.8" y1="333.2" x2="272.8" y2="333.2"/>
<rect x="224.8" y="308.2" style="fill:#86BCB6;" width="18.9" height="19.2"/>
<line style="fill:none;stroke:#A7BDB9;stroke-width:4;stroke-miterlimit:10;" x1="224.9" y1="340.2" x2="272.8" y2="340.2"/>
<rect x="226.7" y="23.2" style="fill:#DA7F64;" width="6" height="9.7"/>
<polygon style="fill:#86BCB6;" points="266.3,64.8 222.7,64.8 222.7,35.3 244.5,19.1 266.3,35.3 "/>
<rect x="228.6" y="36.3" style="fill:#D7EDEA;" width="8.1" height="7.3"/>
<rect x="240.5" y="36.3" style="fill:#D7EDEA;" width="8.1" height="7.3"/>
<rect x="228.1" y="48.2" style="fill:#D7EDEA;" width="8.1" height="7.3"/>
<rect x="240.5" y="48.2" style="fill:#D7EDEA;" width="8.1" height="7.3"/>
<rect x="252.1" y="48.2" style="fill:#DA7F64;" width="10.4" height="16.6"/>
<rect x="252.1" y="36.3" style="fill:#D7EDEA;" width="8.1" height="7.3"/>
<polyline style="fill:#DA7F64;" points="219.8,35.4 244.5,17.4 269.1,35.3 267.8,36.9 244.5,19.9 221.2,36.9 "/>
<rect x="237.4" y="268.2" style="fill:#DA7F64;" width="4" height="6.4"/>
<polygon style="fill:#86BCB6;" points="263.5,295.6 234.8,295.6 234.8,276.2 249.2,265.5 263.5,276.2 "/>
<rect x="238.7" y="276.9" style="fill:#D7EDEA;" width="5.3" height="4.8"/>
<rect x="246.5" y="276.9" style="fill:#D7EDEA;" width="5.3" height="4.8"/>
<rect x="238.4" y="284.7" style="fill:#D7EDEA;" width="5.3" height="4.8"/>
<rect x="246.5" y="284.7" style="fill:#D7EDEA;" width="5.3" height="4.8"/>
<rect x="254.2" y="284.7" style="fill:#DA7F64;" width="6.8" height="11"/>
<rect x="254.2" y="276.9" style="fill:#D7EDEA;" width="5.3" height="4.8"/>
<polyline style="fill:#DA7F64;" points="232.9,276.3 249.2,264.4 265.3,276.2 264.5,277.2 249.2,266 233.8,277.2 "/>
<line style="fill:none;stroke:#A7BDB9;stroke-width:4;stroke-miterlimit:10;" x1="246.3" y1="318.4" x2="272.8" y2="318.4"/>
<line style="fill:none;stroke:#A7BDB9;stroke-width:4;stroke-miterlimit:10;" x1="246.2" y1="325.1" x2="272.8" y2="325.1"/>
<line style="fill:none;stroke:#A7BDB9;stroke-width:4;stroke-miterlimit:10;" x1="246.3" y1="311.9" x2="272.8" y2="311.9"/>
<circle style="fill:#39BEC1;" cx="210.4" cy="288.2" r="13.8"/>
<polygon style="fill:#E7D58A;" points="216.3,279.3 219.2,281.5 209,297.2 201.9,290.1 204.2,287.2 208.5,291.4 "/>
<ellipse style="fill:#D7EDEA;" cx="84.7" cy="84.7" rx="7.8" ry="7.5"/>
<ellipse style="fill:#D7EDEA;" cx="99.4" cy="95.2" rx="5.5" ry="5.3"/>
<ellipse style="fill:#EEE6C4;" cx="222.5" cy="82.3" rx="7.8" ry="7.5"/>
<ellipse style="fill:#EEE6C4;" cx="235.4" cy="93.9" rx="5.5" ry="5.3"/>
<ellipse style="fill:#C0DEE9;" cx="423.5" cy="78.1" rx="7.8" ry="7.5"/>
<ellipse style="fill:#C0DEE9;" cx="408.7" cy="88.6" rx="5.5" ry="5.3"/>
</svg>
