<?xml version="1.0" encoding="utf-8"?>
<!-- Generator: Adobe Illustrator 16.0.4, SVG Export Plug-In . SVG Version: 6.00 Build 0)  -->
<!DOCTYPE svg PUBLIC "-//W3C//DTD SVG 1.1//EN" "http://www.w3.org/Graphics/SVG/1.1/DTD/svg11.dtd">
<svg version="1.1" id="Layer_1" xmlns="http://www.w3.org/2000/svg" xmlns:xlink="http://www.w3.org/1999/xlink" x="0px" y="0px"
	 width="513.3px" height="329.3px" viewBox="0 0 513.3 329.3" style="enable-background:new 0 0 513.3 329.3;" xml:space="preserve"
	>
<polygon style="fill:#DDDCDA;" points="224.9,323.2 115.4,314.2 167.6,291.2 262.5,291.2 "/>
<path style="fill:#EBEAE5;" d="M227.6,299.9c0,0-3,6.9-35.5,6.9c-29.6,0-35.5-6.9-35.5-6.9v-78.9c0,0,4.4,8.9,35.5,9.4
	c29.4,0.5,35.5-9.4,35.5-9.4V299.9z"/>
<ellipse style="fill:#EBEAE5;" cx="192.1" cy="299.2" rx="35.5" ry="12.3"/>
<polygon style="fill:#EBEAE5;" points="226.6,228 117.1,228 166.8,205.1 264.2,205.1 "/>
<g>
	<path style="fill:#D5D4CD;" d="M216.7,152.4c0,12.9-10.5,23.4-23.4,23.4s-23.4-10.5-23.4-23.4c0-12.9,10.5-23.4,23.4-23.4
		S216.7,139.5,216.7,152.4z"/>
	<path style="fill:#D5D4CD;" d="M183.2,170.4c3.7,11.7-16,15.1-23.6,17.9c-13.7,5-12.4,28-12.4,28h91c0,0,1.3-23-12.4-28
		c-7.7-2.8-27.3-6.2-23.6-17.9"/>
</g>
<polygon style="fill:#D5D4CD;" points="264.2,220.2 225.1,243.1 225.1,228 264.2,205.1 "/>
<polygon style="fill:#D5D4CD;" points="262.5,306.4 223.4,329.3 222.7,314.8 262.5,291.2 "/>
<rect x="115.4" y="314.2" style="fill:#D5D4CD;" width="108" height="15.1"/>
<path style="fill:#86BCB6;" d="M181.9,140.9c9.7,0.1,1.3-15.1,1.3-15.1S170,140.9,181.9,140.9z"/>
<polygon style="fill:#DDDCDA;" points="346.3,276.5 238.6,267.4 290.9,244.5 385.8,244.5 "/>
<path style="fill:#EBEAE5;" d="M349.2,249.4c0,0-3,8.5-35.5,8.5c-29.6,0-35.5-8.5-35.5-8.5V15.9c0,0,4.4,6.9,35.5,8.3
	c29.4,1.3,35.5,2.6,35.5,2.6V249.4z"/>
<ellipse style="fill:#EBEAE5;" cx="313.7" cy="251.2" rx="35.5" ry="12.4"/>
<polygon style="fill:#EBEAE5;" points="348.1,22.9 238.6,22.9 288.3,0 385.8,0 "/>
<polygon style="fill:#D5D4CD;" points="385.8,15.1 346.7,38.1 346.7,22.9 385.8,0 "/>
<polygon style="fill:#D5D4CD;" points="385.8,259.6 346.7,282.5 345.9,268.1 385.8,244.5 "/>
<rect x="238.6" y="267.4" style="fill:#D5D4CD;" width="108" height="15.1"/>
<line style="fill:none;stroke:#D5D4CD;stroke-width:4;stroke-linecap:round;stroke-miterlimit:10;" x1="285.6" y1="34.4" x2="285.6" y2="253.4"/>
<line style="fill:none;stroke:#D5D4CD;stroke-width:4;stroke-linecap:round;stroke-miterlimit:10;" x1="299.5" y1="34.4" x2="299.5" y2="256.1"/>
<line style="fill:none;stroke:#D5D4CD;stroke-width:4;stroke-linecap:round;stroke-miterlimit:10;" x1="313.5" y1="34.4" x2="313.5" y2="258"/>
<line style="fill:none;stroke:#D5D4CD;stroke-width:4;stroke-linecap:round;stroke-miterlimit:10;" x1="327.4" y1="34.4" x2="327.4" y2="256.1"/>
<line style="fill:none;stroke:#D5D4CD;stroke-width:4;stroke-linecap:round;stroke-miterlimit:10;" x1="341.4" y1="34.4" x2="341.4" y2="253.4"/>
<rect x="238.6" y="22.9" style="fill:#D5D4CD;" width="108" height="15.1"/>
<path style="fill:#87CFC4;" d="M175.6,143.4c9.7-0.2,0.9-15.1,0.9-15.1S163.7,143.7,175.6,143.4z"/>
<path style="fill:#87CFC4;" d="M174.5,145.2c2-9.5-14.6-4.2-14.6-4.2S172.1,156.9,174.5,145.2z"/>
<path style="fill:#86BCB6;" d="M176.2,144.4c6.5-7.3-10.5-11-10.5-11S168.3,153.2,176.2,144.4z"/>
<path style="fill:#86BCB6;" d="M204.3,142.2c-9.7,0.1-1.3-15.1-1.3-15.1S216.2,142.1,204.3,142.2z"/>
<path style="fill:#87CFC4;" d="M210.6,144.6c-9.7-0.2-0.9-15.1-0.9-15.1S222.5,144.9,210.6,144.6z"/>
<path style="fill:#87CFC4;" d="M211.4,146c-0.7-9.7,15-2.3,15-2.3S212.2,157.9,211.4,146z"/>
<path style="fill:#86BCB6;" d="M210,145.6c-6.5-7.3,10.5-11,10.5-11S217.9,154.5,210,145.6z"/>
<line style="fill:none;stroke:#D5D4CD;stroke-width:4;stroke-linecap:round;stroke-miterlimit:10;" x1="164" y1="239.5" x2="164" y2="303.2"/>
<line style="fill:none;stroke:#D5D4CD;stroke-width:4;stroke-linecap:round;stroke-miterlimit:10;" x1="178" y1="239.5" x2="178" y2="306"/>
<line style="fill:none;stroke:#D5D4CD;stroke-width:4;stroke-linecap:round;stroke-miterlimit:10;" x1="191.9" y1="239.5" x2="191.9" y2="307.8"/>
<line style="fill:none;stroke:#D5D4CD;stroke-width:4;stroke-linecap:round;stroke-miterlimit:10;" x1="205.9" y1="239.5" x2="205.9" y2="306"/>
<line style="fill:none;stroke:#D5D4CD;stroke-width:4;stroke-linecap:round;stroke-miterlimit:10;" x1="219.8" y1="239.5" x2="219.8" y2="303.2"/>
<rect x="117.1" y="228" style="fill:#D5D4CD;" width="108" height="15.1"/>
<polygon style="fill:#DDDCDA;" points="472.1,314.4 364.4,305.4 416.7,282.4 511.6,282.4 "/>
<path style="fill:#EBEAE5;" d="M476.7,291.1c0,0-3,6.9-35.5,6.9c-29.6,0-35.5-6.9-35.5-6.9v-78.9c0,0,4.4,8.9,35.5,9.4
	c29.4,0.5,35.5-9.4,35.5-9.4V291.1z"/>
<path style="fill:#EBEAE5;" d="M476.7,290.4c0,6.8-15.9,12.3-35.5,12.3c-19.6,0-35.5-5.5-35.5-12.3c0-6.8,15.9-12.4,35.5-12.4
	C460.8,278,476.7,283.5,476.7,290.4z"/>
<polygon style="fill:#EBEAE5;" points="475.7,219.2 366.1,219.2 415.8,196.2 513.3,196.2 "/>
<g>
	<circle style="fill:#BBB8B2;" cx="442.3" cy="143.6" r="23.4"/>
	<path style="fill:#BBB8B2;" d="M432.3,161.6c3.7,11.7-16,15.1-23.6,17.9c-13.7,5-12.4,28-12.4,28h91c0,0,1.3-23-12.4-28
		c-7.7-2.8-27.3-6.2-23.6-17.9"/>
</g>
<polygon style="fill:#D5D4CD;" points="513.3,211.4 474.2,234.3 474.2,219.2 513.3,196.2 "/>
<polygon style="fill:#D5D4CD;" points="511.6,297.6 472.5,320.5 471.7,306 511.6,282.4 "/>
<rect x="364.4" y="305.4" style="fill:#D5D4CD;" width="108" height="15.1"/>
<path style="fill:#86BCB6;" d="M430.9,132.1c9.7,0.1,1.3-15.1,1.3-15.1S419,132.1,430.9,132.1z"/>
<path style="fill:#87CFC4;" d="M424.6,134.6c9.7-0.2,0.9-15.1,0.9-15.1S412.7,134.9,424.6,134.6z"/>
<path style="fill:#87CFC4;" d="M423.7,134.6c-0.4-9.7-15.2-0.7-15.2-0.7S424.1,146.5,423.7,134.6z"/>
<path style="fill:#86BCB6;" d="M425.3,135.6c6.5-7.3-10.5-11-10.5-11S417.3,144.4,425.3,135.6z"/>
<path style="fill:#86BCB6;" d="M453.3,133.4c-9.7,0.1-1.3-15.1-1.3-15.1S465.2,133.3,453.3,133.4z"/>
<path style="fill:#87CFC4;" d="M459.6,135.8c-9.7-0.2-0.9-15.1-0.9-15.1S471.5,136.1,459.6,135.8z"/>
<path style="fill:#87CFC4;" d="M460.3,136.7c0.1-9.7,15.1-1.1,15.1-1.1S460.2,148.6,460.3,136.7z"/>
<path style="fill:#86BCB6;" d="M459,136.8c-6.5-7.3,10.5-11,10.5-11S467,145.7,459,136.8z"/>
<line style="fill:none;stroke:#D5D4CD;stroke-width:4;stroke-linecap:round;stroke-miterlimit:10;" x1="413.1" y1="230.7" x2="413.1" y2="294.4"/>
<line style="fill:none;stroke:#D5D4CD;stroke-width:4;stroke-linecap:round;stroke-miterlimit:10;" x1="427" y1="230.7" x2="427" y2="297.2"/>
<line style="fill:none;stroke:#D5D4CD;stroke-width:4;stroke-linecap:round;stroke-miterlimit:10;" x1="441" y1="230.7" x2="441" y2="299"/>
<line style="fill:none;stroke:#D5D4CD;stroke-width:4;stroke-linecap:round;stroke-miterlimit:10;" x1="454.9" y1="230.7" x2="454.9" y2="297.2"/>
<line style="fill:none;stroke:#D5D4CD;stroke-width:4;stroke-linecap:round;stroke-miterlimit:10;" x1="468.9" y1="230.7" x2="468.9" y2="294.4"/>
<rect x="366.1" y="219.2" style="fill:#D5D4CD;" width="108" height="15.1"/>
<path style="fill:#D5D4CD;" d="M110.6,33.8c0,6.8-15.9,12.3-35.5,12.3c-19.6,0-35.5-13.7-35.5-20.5c0-6.8,15.9-4.2,35.5-4.2
	C94.7,21.4,110.6,26.9,110.6,33.8z"/>
<polygon style="fill:#DDDCDA;" points="107.7,283.6 0,274.5 52.2,251.6 147.2,251.6 "/>
<path style="fill:#EBEAE5;" d="M110.6,256.5c0,0-3,8.5-35.5,8.5c-29.6,0-35.5-8.5-35.5-8.5V23c0,0,4.4,6.9,35.5,8.3
	c29.4,1.3,35.5,2.6,35.5,2.6V256.5z"/>
<ellipse style="fill:#EBEAE5;" cx="75" cy="258.3" rx="35.5" ry="12.4"/>
<polygon style="fill:#D5D4CD;" points="147.2,266.7 108,289.6 107.3,275.1 147.2,251.6 "/>
<rect y="274.5" style="fill:#D5D4CD;" width="108" height="15.1"/>
<line style="fill:none;stroke:#D5D4CD;stroke-width:4;stroke-linecap:round;stroke-miterlimit:10;" x1="46.9" y1="41.5" x2="46.9" y2="260.5"/>
<line style="fill:none;stroke:#D5D4CD;stroke-width:4;stroke-linecap:round;stroke-miterlimit:10;" x1="60.9" y1="41.5" x2="60.9" y2="263.2"/>
<line style="fill:none;stroke:#D5D4CD;stroke-width:4;stroke-linecap:round;stroke-miterlimit:10;" x1="74.8" y1="41.5" x2="74.8" y2="265.1"/>
<line style="fill:none;stroke:#D5D4CD;stroke-width:4;stroke-linecap:round;stroke-miterlimit:10;" x1="88.8" y1="41.5" x2="88.8" y2="263.2"/>
<line style="fill:none;stroke:#D5D4CD;stroke-width:4;stroke-linecap:round;stroke-miterlimit:10;" x1="102.8" y1="41.5" x2="102.8" y2="260.5"/>
</svg>
