<?xml version="1.0" encoding="utf-8"?>
<!-- Generator: Adobe Illustrator 16.0.4, SVG Export Plug-In . SVG Version: 6.00 Build 0)  -->
<!DOCTYPE svg PUBLIC "-//W3C//DTD SVG 1.1//EN" "http://www.w3.org/Graphics/SVG/1.1/DTD/svg11.dtd">
<svg version="1.1" id="Layer_1" xmlns="http://www.w3.org/2000/svg" xmlns:xlink="http://www.w3.org/1999/xlink" x="0px" y="0px"
	 width="195px" height="195px" viewBox="0 0 195 195" enable-background="new 0 0 195 195" xml:space="preserve">
<circle fill="#432F64" cx="97.5" cy="97.5" r="97.5"/>
<g>
	<line fill="none" stroke="#DC8067" stroke-width="4" stroke-miterlimit="10" x1="37.184" y1="87.052" x2="51.329" y2="78.64"/>
	<line fill="none" stroke="#DC8067" stroke-width="4" stroke-miterlimit="10" x1="50.505" y1="78.853" x2="133.938" y2="78.854"/>
	<rect x="36.337" y="85.707" fill="#DC8067" width="90.516" height="41.419"/>
	<path fill="#39BEC1" d="M80.834,63.305c0,0-7.669,7.871-8.88,13.724c-1.211,5.854,0,59.739,0,59.739s4.036,4.642,17.356,4.44
		c13.321-0.201,19.577-4.036,19.577-4.036s0-54.693,0-59.335c0-4.642-8.879-14.532-8.879-14.532s1.513-11.201-0.203-12.513
		c-1.124-0.86-5.247-2.117-5.247-2.117v-9.387c0,0,4.643,0.202,3.027-2.018c-1.615-2.219-24.523-0.125-25.632,0
		c-1.109,0.125-1.11,1.64-1.008,2.018c0.101,0.378,1.841,1.21,2.422,1.21c0.581,0,1.941-1.21,2.825-1.412
		c0.883-0.202,9.386,0.404,9.386,0.404l-0.099,9.182c0,0-3.636,0.505-4.847,1.918C79.422,52.003,80.834,63.305,80.834,63.305z"/>
	<path fill="#E7D58A" d="M106.128,120.274c0,0-7.904,3.148-15.742,3.148c-7.839,0-15.743-3.148-15.743-3.148V84.1
		c0,0,6.56,1.575,15.743,1.575c9.182,0,15.742-1.575,15.742-1.575V120.274z"/>
	<path fill="#005D71" d="M130.004,49.503c0.932,0,2.935-0.454,10.485-0.454c8.064,0,8.77,0.446,9.649,0.454
		c0.88,0.009,1.071,8.012,0,8.012c-1.071,0-1.035-0.007-2.261,0c-1.225,0.008-0.849,6.674,0,7.397
		c0.849,0.722,9.624,8.672,10.454,10.478s-0.161,58.14-0.161,58.14s-1.438,6.164-4.153,6.164c-2.714,0-25.533,0.402-28.762,0
		c-3.229-0.402-3.287-5.958-3.287-5.958s-0.652-55.452,0.011-58.384c0.664-2.932,9.586-9.624,10.53-10.386
		c0.944-0.763,0.658-7.446-0.097-7.45c-0.756-0.002-1.878-0.007-2.371,0C129.549,57.523,129.073,49.503,130.004,49.503z"/>
	<path fill="#229DD2" d="M89.218,107.579c0,0-2.278-2.885,23.392-2.885c25.671,0,24.621,2.885,24.621,2.885v13.38
		c0,0,2.398-0.072,2.886,2.362c0.653,3.254-4.722,21.776-4.722,21.776s-6.823,4.46-21.121,4.46s-23.481-3.673-23.481-3.673
		s-6.293-20.108-5.245-22.8c0.854-2.197,2.884-2.387,2.884-2.387L89.218,107.579z"/>
	<path fill="#39BEC1" d="M132.085,142.048c0,0-11.445,3.148-19.284,3.148s-19.284-3.148-19.284-3.148l-1.574-14.922
		c0,0,11.675,3.148,20.858,3.148c9.182,0,20.858-3.148,20.858-3.148L132.085,142.048z"/>
</g>
<g>
</g>
<g>
</g>
<g>
</g>
<g>
</g>
<g>
</g>
<g>
</g>
<g>
</g>
<g>
</g>
<g>
</g>
<g>
</g>
<g>
</g>
<g>
</g>
<g>
</g>
<g>
</g>
<g>
</g>
</svg>
