<?xml version="1.0" encoding="utf-8"?>
<!-- Generator: Adobe Illustrator 16.0.4, SVG Export Plug-In . SVG Version: 6.00 Build 0)  -->
<!DOCTYPE svg PUBLIC "-//W3C//DTD SVG 1.1//EN" "http://www.w3.org/Graphics/SVG/1.1/DTD/svg11.dtd">
<svg version="1.1" id="Layer_1" xmlns="http://www.w3.org/2000/svg" xmlns:xlink="http://www.w3.org/1999/xlink" x="0px" y="0px"
	 width="195px" height="195px" viewBox="0 0 195 195" enable-background="new 0 0 195 195" xml:space="preserve">
<circle fill="#432F64" cx="97.5" cy="97.5" r="97.5"/>
<path fill="none" stroke="#86BCB6" stroke-width="2" stroke-miterlimit="10" d="M91.876,52.203c0,0,12.041-22.529,23.113-22.529
	c11.071,0,12.734,22.529,12.734,22.529"/>
<polygon fill="#005D71" points="74.036,54.371 95.433,62.342 80.719,50.169 "/>
<g>
	<polygon fill="#005D71" points="150.546,139.652 76.161,135.721 80.65,50.207 146.288,53.652 	"/>
	<polygon fill="#005D71" points="80.677,50.245 82.289,48.068 83.665,50.401 	"/>
	<polygon fill="#005D71" points="83.665,50.401 85.276,48.226 86.652,50.559 	"/>
	<polygon fill="#005D71" points="86.652,50.559 88.264,48.382 89.639,50.716 	"/>
	<polygon fill="#005D71" points="89.681,50.64 91.292,48.463 92.668,50.796 	"/>
	<polygon fill="#005D71" points="92.626,50.872 94.238,48.696 95.614,51.029 	"/>
	<polygon fill="#005D71" points="95.614,51.029 97.226,48.853 98.601,51.186 	"/>
	<polygon fill="#005D71" points="98.518,51.182 100.129,49.005 101.505,51.338 	"/>
	<polygon fill="#005D71" points="101.505,51.338 103.118,49.162 104.493,51.495 	"/>
	<polygon fill="#005D71" points="104.493,51.495 106.104,49.319 107.48,51.651 	"/>
	<polygon fill="#005D71" points="107.48,51.651 109.091,49.476 110.467,51.809 	"/>
	<polygon fill="#005D71" points="110.467,51.809 112.08,49.633 113.455,51.966 	"/>
	<polygon fill="#005D71" points="113.455,51.966 115.067,49.789 116.442,52.122 	"/>
	<polygon fill="#005D71" points="116.442,52.122 118.053,49.946 119.429,52.279 	"/>
	<polygon fill="#005D71" points="119.429,52.279 121.042,50.103 122.417,52.437 	"/>
	<polygon fill="#005D71" points="122.417,52.437 124.029,50.26 125.404,52.593 	"/>
	<polygon fill="#005D71" points="125.404,52.593 127.016,50.417 128.391,52.749 	"/>
	<polygon fill="#005D71" points="128.391,52.749 130.003,50.573 131.378,52.906 	"/>
	<polygon fill="#005D71" points="131.378,52.906 132.991,50.73 134.366,53.063 	"/>
	<polygon fill="#005D71" points="134.366,53.063 135.978,50.887 137.353,53.22 	"/>
	<polygon fill="#005D71" points="137.353,53.22 138.965,51.044 140.34,53.377 	"/>
	<polygon fill="#005D71" points="140.34,53.377 141.953,51.2 143.328,53.534 	"/>
	<polygon fill="#005D71" points="143.328,53.534 144.94,51.357 146.316,53.69 	"/>
</g>
<polygon fill="#86BCB6" points="134.971,146.246 69.333,139.885 73.822,54.371 139.632,57.98 "/>
<polygon fill="#86BCB6" points="73.994,54.535 75.606,52.358 76.981,54.691 "/>
<polygon fill="#86BCB6" points="76.981,54.691 78.593,52.516 79.968,54.849 "/>
<polygon fill="#86BCB6" points="79.968,54.849 81.581,52.672 82.956,55.005 "/>
<polygon fill="#86BCB6" points="82.956,55.005 84.568,52.829 85.943,55.162 "/>
<polygon fill="#86BCB6" points="85.943,55.162 87.555,52.985 88.93,55.319 "/>
<polygon fill="#86BCB6" points="88.93,55.319 90.542,53.143 91.917,55.476 "/>
<polygon fill="#86BCB6" points="91.834,55.472 93.446,53.295 94.822,55.628 "/>
<polygon fill="#86BCB6" points="94.822,55.628 96.434,53.452 97.809,55.785 "/>
<polygon fill="#86BCB6" points="97.809,55.785 99.421,53.608 100.796,55.941 "/>
<polygon fill="#86BCB6" points="100.796,55.941 102.409,53.766 103.784,56.099 "/>
<polygon fill="#86BCB6" points="103.784,56.099 105.396,53.923 106.771,56.255 "/>
<polygon fill="#86BCB6" points="106.771,56.255 108.383,54.079 109.758,56.412 "/>
<polygon fill="#86BCB6" points="109.758,56.412 111.371,54.235 112.746,56.569 "/>
<polygon fill="#86BCB6" points="112.746,56.569 114.358,54.393 115.733,56.726 "/>
<polygon fill="#86BCB6" points="115.733,56.726 117.345,54.55 118.72,56.883 "/>
<polygon fill="#86BCB6" points="118.72,56.883 120.333,54.706 121.708,57.039 "/>
<polygon fill="#86BCB6" points="121.708,57.039 123.32,54.863 124.695,57.196 "/>
<polygon fill="#86BCB6" points="124.695,57.196 126.307,55.021 127.682,57.353 "/>
<polygon fill="#86BCB6" points="127.682,57.353 129.294,55.177 130.67,57.51 "/>
<polygon fill="#86BCB6" points="130.67,57.51 132.282,55.333 133.658,57.667 "/>
<polygon fill="#86BCB6" points="133.658,57.667 135.269,55.49 136.644,57.823 "/>
<polygon fill="#86BCB6" points="136.644,57.823 138.256,55.646 139.632,57.98 "/>
<polygon fill="#005D71" points="134.686,146.246 150.616,139.614 135.901,127.442 "/>
<path fill="none" stroke="#86BCB6" stroke-width="2" stroke-miterlimit="10" d="M88.103,61.314c0,0,12.042-22.528,23.114-22.528
	c11.071,0,12.734,22.528,12.734,22.528"/>
<path fill="none" stroke="#E7D689" stroke-miterlimit="10" d="M49.083,93.112c0,0,7.097-13.279,13.623-13.279
	s7.507,13.279,7.507,13.279"/>
<polygon fill="#C1A73A" points="38.567,94.39 51.179,99.089 42.506,91.913 "/>
<g>
	<polygon fill="#C1A73A" points="83.706,144.636 39.861,142.318 42.506,91.913 81.196,93.944 	"/>
	<polygon fill="#C1A73A" points="42.506,91.913 43.457,90.631 44.267,92.006 	"/>
	<polygon fill="#C1A73A" points="44.267,92.006 45.217,90.723 46.029,92.099 	"/>
	<polygon fill="#C1A73A" points="46.029,92.099 46.978,90.815 47.789,92.19 	"/>
	<polygon fill="#C1A73A" points="47.789,92.19 48.739,90.908 49.55,92.283 	"/>
	<polygon fill="#C1A73A" points="49.55,92.283 50.5,91 51.311,92.375 	"/>
	<polygon fill="#C1A73A" points="51.311,92.375 52.261,91.093 53.072,92.468 	"/>
	<polygon fill="#C1A73A" points="53.022,92.466 53.973,91.183 54.784,92.558 	"/>
	<polygon fill="#C1A73A" points="54.784,92.558 55.734,91.274 56.544,92.65 	"/>
	<polygon fill="#C1A73A" points="56.544,92.65 57.495,91.367 58.305,92.742 	"/>
	<polygon fill="#C1A73A" points="58.305,92.742 59.255,91.46 60.066,92.835 	"/>
	<polygon fill="#C1A73A" points="60.066,92.835 61.016,91.553 61.827,92.928 	"/>
	<polygon fill="#C1A73A" points="61.827,92.928 62.777,91.645 63.587,93.021 	"/>
	<polygon fill="#C1A73A" points="63.587,93.021 64.538,91.737 65.348,93.112 	"/>
	<polygon fill="#C1A73A" points="65.348,93.112 66.298,91.829 67.109,93.205 	"/>
	<polygon fill="#C1A73A" points="67.109,93.205 68.06,91.922 68.871,93.298 	"/>
	<polygon fill="#C1A73A" points="68.871,93.298 69.82,92.015 70.631,93.39 	"/>
	<polygon fill="#C1A73A" points="70.631,93.39 71.582,92.106 72.392,93.481 	"/>
	<polygon fill="#C1A73A" points="72.392,93.481 73.342,92.199 74.153,93.574 	"/>
	<polygon fill="#C1A73A" points="74.153,93.574 75.103,92.292 75.914,93.667 	"/>
	<polygon fill="#C1A73A" points="75.914,93.667 76.864,92.384 77.674,93.759 	"/>
	<polygon fill="#C1A73A" points="77.674,93.759 78.625,92.477 79.435,93.853 	"/>
	<polygon fill="#C1A73A" points="79.435,93.853 80.385,92.569 81.196,93.944 	"/>
</g>
<polygon fill="#E7D58A" points="74.611,148.545 35.921,144.796 38.567,94.39 77.256,96.421 "/>
<polygon fill="#E7D58A" points="38.567,94.39 39.517,93.107 40.328,94.482 "/>
<polygon fill="#E7D58A" points="40.328,94.482 41.278,93.2 42.089,94.575 "/>
<polygon fill="#E7D58A" points="42.089,94.575 43.039,93.292 43.85,94.667 "/>
<polygon fill="#E7D58A" points="43.85,94.667 44.8,93.385 45.611,94.76 "/>
<polygon fill="#E7D58A" points="45.611,94.76 46.56,93.478 47.372,94.853 "/>
<polygon fill="#E7D58A" points="47.372,94.853 48.322,93.569 49.132,94.944 "/>
<polygon fill="#E7D58A" points="49.083,94.942 50.033,93.659 50.844,95.034 "/>
<polygon fill="#E7D58A" points="50.844,95.034 51.794,93.751 52.605,95.127 "/>
<polygon fill="#E7D58A" points="52.605,95.127 53.555,93.845 54.366,95.219 "/>
<polygon fill="#E7D58A" points="54.366,95.219 55.316,93.937 56.126,95.312 "/>
<polygon fill="#E7D58A" points="56.126,95.312 57.077,94.029 57.887,95.404 "/>
<polygon fill="#E7D58A" points="57.887,95.404 58.837,94.122 59.648,95.497 "/>
<polygon fill="#E7D58A" points="59.648,95.497 60.598,94.214 61.409,95.589 "/>
<polygon fill="#E7D58A" points="61.409,95.589 62.359,94.306 63.17,95.682 "/>
<polygon fill="#E7D58A" points="63.17,95.682 64.12,94.398 64.93,95.774 "/>
<polygon fill="#E7D58A" points="64.93,95.774 65.88,94.491 66.692,95.866 "/>
<polygon fill="#E7D58A" points="66.692,95.866 67.641,94.584 68.453,95.959 "/>
<polygon fill="#E7D58A" points="68.453,95.959 69.403,94.677 70.213,96.051 "/>
<polygon fill="#E7D58A" points="70.213,96.051 71.164,94.769 71.974,96.144 "/>
<polygon fill="#E7D58A" points="71.974,96.144 72.924,94.861 73.735,96.236 "/>
<polygon fill="#E7D58A" points="73.735,96.236 74.685,94.953 75.496,96.329 "/>
<polygon fill="#E7D58A" points="75.496,96.329 76.446,95.046 77.256,96.421 "/>
<polygon fill="#C1A73A" points="74.611,148.545 83.706,144.636 75.033,137.461 "/>
<path fill="none" stroke="#E7D689" stroke-miterlimit="10" d="M46.86,98.483c0,0,7.097-13.279,13.623-13.279
	s7.507,13.279,7.507,13.279"/>
<polygon fill="#C1A73A" points="56.919,109.82 59.628,117.031 67.106,118.888 61.085,123.693 61.63,131.379 55.2,127.137 
	48.059,130.03 50.106,122.604 45.147,116.706 52.843,116.357 "/>
<polygon fill="#005D71" points="104.155,80.609 108.106,91.126 119.01,93.832 110.23,100.841 111.025,112.047 101.647,105.861 
	91.235,110.081 94.219,99.25 86.988,90.651 98.211,90.144 "/>
<g>
</g>
<g>
</g>
<g>
</g>
<g>
</g>
<g>
</g>
<g>
</g>
<g>
</g>
<g>
</g>
<g>
</g>
<g>
</g>
<g>
</g>
<g>
</g>
<g>
</g>
<g>
</g>
<g>
</g>
</svg>
