<?xml version="1.0" encoding="utf-8"?>
<!-- Generator: Adobe Illustrator 16.0.4, SVG Export Plug-In . SVG Version: 6.00 Build 0)  -->
<!DOCTYPE svg PUBLIC "-//W3C//DTD SVG 1.1//EN" "http://www.w3.org/Graphics/SVG/1.1/DTD/svg11.dtd">
<svg version="1.1" id="Layer_1" xmlns="http://www.w3.org/2000/svg" xmlns:xlink="http://www.w3.org/1999/xlink" x="0px" y="0px"
	 width="195px" height="195px" viewBox="0 0 195 195" enable-background="new 0 0 195 195" xml:space="preserve">
<circle fill="#432F64" cx="97.5" cy="97.5" r="97.5"/>
<circle fill="#C1A73A" cx="76.115" cy="81.6" r="7.024"/>
<line fill="none" stroke="#86BCB5" stroke-width="5" stroke-linecap="round" stroke-miterlimit="10" x1="57.638" y1="100.027" x2="23.522" y2="139.229"/>
<line fill="none" stroke="#86BCB5" stroke-width="5" stroke-linecap="round" stroke-miterlimit="10" x1="59.329" y1="89.169" x2="73.286" y2="139.229"/>
<path fill="none" stroke="#86BCB5" stroke-width="5" stroke-linecap="round" stroke-miterlimit="10" d="M71.949,134.436
	c0,0-12.621-2.147-22.234-2.147c-10.396,0-22.021,2.147-22.021,2.147"/>
<line fill="none" stroke="#86BCB5" stroke-width="5" stroke-linecap="round" stroke-miterlimit="10" x1="67.143" y1="114.199" x2="34.936" y2="129.107"/>
<line fill="none" stroke="#86BCB5" stroke-width="5" stroke-linecap="round" stroke-miterlimit="10" x1="47.064" y1="112.178" x2="66.307" y2="130.498"/>
<path fill="#E7D58A" d="M111.986,109.418c-0.174,0.246-0.355,0.489-0.543,0.729c-10.213,13.062-36.71,13.18-56.327-2.155
	C35.5,92.654,30.194,67.668,40.406,54.606c0.143-0.182,0.288-0.361,0.436-0.538L111.986,109.418z"/>
<path fill="none" stroke="#229CD2" stroke-width="8" stroke-linecap="round" stroke-miterlimit="10" d="M97.334,83.412
	c2.08-20.29-12.767-27.503-28.582-20.829"/>
<path fill="none" stroke="#229CD2" stroke-width="8" stroke-linecap="round" stroke-miterlimit="10" d="M111.791,81.65
	c3.395-33.134-20.849-44.914-46.675-34.014"/>
<path fill="none" d="M135.468,95.042c-0.134,0.227-0.297,0.25-0.491,0.071"/>
<path fill="#A7BDB9" d="M122.969,124.682c-2.546-1.894-3.08-5.527-1.186-8.074l29.129-39.142c1.895-2.546,5.529-3.079,8.074-1.184
	l18.17,13.521c2.548,1.896,3.08,5.529,1.187,8.075l-29.129,39.142c-1.896,2.545-5.528,3.078-8.075,1.183L122.969,124.682z"/>
<rect x="130.961" y="91.085" transform="matrix(0.597 -0.8022 0.8022 0.597 -24.2796 163.8273)" fill="#6BC1BF" width="39.939" height="29.992"/>
<rect x="135.453" y="85.765" transform="matrix(-0.8022 -0.597 0.597 -0.8022 207.4301 282.1465)" fill="#EBEAE5" width="29.992" height="41.902"/>
<line fill="none" stroke="#A7BDB9" stroke-width="5" stroke-miterlimit="10" x1="130.17" y1="112.488" x2="150.82" y2="127.855"/>
<rect x="139.381" y="89.545" transform="matrix(-0.8022 -0.597 0.597 -0.8022 212.2702 278.6961)" fill="#86BCB6" width="25.834" height="29.287"/>
<g>
	<circle fill="#005D71" cx="155.637" cy="100.312" r="4.352"/>
	<path fill="#005D71" d="M152.133,101.879c-0.742,2.159-4.062,0.486-5.517,0.055c-2.607-0.772-4.964,2.803-4.964,2.803
		l13.586,10.111c0,0,2.75-3.285,1.261-5.56c-0.832-1.269-3.386-3.97-1.531-5.302"/>
</g>
<path fill="none" stroke="#3ABEC0" stroke-width="6" stroke-linecap="round" stroke-miterlimit="10" d="M162.311,70.309
	c-7.435-6.861-14.715-3.115-16.772,5.146"/>
<path fill="none" stroke="#3ABEC0" stroke-width="6" stroke-linecap="round" stroke-miterlimit="10" d="M165.913,64.048
	c-12.14-11.203-24.029-5.085-27.39,8.405"/>
</svg>
