<?xml version="1.0" encoding="utf-8"?>
<!-- Generator: Adobe Illustrator 16.0.4, SVG Export Plug-In . SVG Version: 6.00 Build 0)  -->
<!DOCTYPE svg PUBLIC "-//W3C//DTD SVG 1.1//EN" "http://www.w3.org/Graphics/SVG/1.1/DTD/svg11.dtd">
<svg version="1.1" id="Layer_1" xmlns="http://www.w3.org/2000/svg" xmlns:xlink="http://www.w3.org/1999/xlink" x="0px" y="0px"
	 width="217.667px" height="217.667px" viewBox="0 0 217.667 217.667" enable-background="new 0 0 217.667 217.667"
	 xml:space="preserve">
<circle fill="#065053" cx="109.167" cy="108.167" r="97.5"/>
<path fill="#6CA9A3" d="M75.711,155.578c0-2.496,6.625-39.109,31.675-39.109c27.438,0,31.232,29.974,31.672,39.06
	c0.285,5.919-16.891,14.919-31.672,14.919C91.261,170.446,75.711,158.074,75.711,155.578z"/>
<rect x="62.633" y="58.218" transform="matrix(-0.7071 -0.7071 0.7071 -0.7071 110.8295 252.4896)" fill="#BECECB" width="90.147" height="90.147"/>
<path fill="#105B6B" d="M125.73,81.252c2.777,3.646,3.402,8.197,3.402,13.135c0,11.98-9.711,21.69-21.689,21.69
	c-11.979,0-21.69-9.71-21.69-21.69c0-4.789,0.527-9.216,3.157-12.805"/>
<path fill="#105B6B" d="M78.711,154.973c0-2.267,6.015-35.505,28.756-35.505c24.908,0,28.354,27.211,28.753,35.459
	c0.26,5.373-15.334,13.545-28.753,13.545C92.828,168.472,78.711,157.24,78.711,154.973z"/>
<path fill="#105B6B" d="M80.852,91.217c3.129,0,3.16,4.547,2.948,6.558c-1.963,0.286-3.304,0.701-5.146-0.065
	C78.653,97.709,77.693,91.217,80.852,91.217z"/>
<path fill="#105B6B" d="M137.416,74.859c0,2.91-29.979,22.854-29.979,22.854S77.457,77.889,77.457,74.859
	c0-3.027,25.407-15.727,29.979-15.727C112.007,59.133,137.416,71.95,137.416,74.859z"/>
<line fill="none" stroke="#105B6B" stroke-width="2" stroke-miterlimit="10" x1="80.667" y1="77.667" x2="80.667" y2="91.667"/>
</svg>
