<?xml version="1.0" encoding="utf-8"?>
<!-- Generator: Adobe Illustrator 16.0.4, SVG Export Plug-In . SVG Version: 6.00 Build 0)  -->
<!DOCTYPE svg PUBLIC "-//W3C//DTD SVG 1.1//EN" "http://www.w3.org/Graphics/SVG/1.1/DTD/svg11.dtd">
<svg version="1.1" id="Layer_1" xmlns="http://www.w3.org/2000/svg" xmlns:xlink="http://www.w3.org/1999/xlink" x="0px" y="0px"
	 width="217.667px" height="217.667px" viewBox="0 0 217.667 217.667" enable-background="new 0 0 217.667 217.667"
	 xml:space="preserve">
<circle fill="#065053" cx="109.167" cy="108.167" r="97.5"/>
<g opacity="0.7">
	<path fill="#EBEAE5" d="M137.123,42.038L37.558,66.899c-5.469,1.365-8.795,6.908-7.43,12.377l13.326,53.367
		c1.366,5.47,6.907,8.797,12.376,7.433l8.366-2.091c-0.17-0.36-0.309-0.741-0.41-1.144c-0.825-3.303,1.184-6.646,4.486-7.473
		c3.302-0.824,6.648,1.186,7.472,4.486c0.101,0.402,0.157,0.805,0.176,1.203l59.382-14.828c-0.17-0.361-0.309-0.743-0.409-1.145
		c-0.825-3.301,1.185-6.647,4.485-7.471c3.302-0.824,6.647,1.182,7.473,4.485c0.102,0.401,0.156,0.804,0.176,1.203l8.367-2.091
		c5.469-1.365,8.795-6.906,7.43-12.375l-13.326-53.369C148.132,43.999,142.591,40.672,137.123,42.038z"/>
	<g>
		<circle fill="#005D71" cx="65.076" cy="84.999" r="12.287"/>
		<path fill="#005D71" d="M62.231,95.45c3.385,5.488-6.205,9.744-9.752,12.152c-6.352,4.312-2.759,15.854-2.759,15.854
			l46.395-11.586c0,0-2.256-11.876-9.888-12.696c-4.263-0.457-14.728,0.294-14.32-6.141"/>
	</g>
	<line fill="none" stroke="#A7BDB9" stroke-width="5" stroke-miterlimit="10" x1="93.026" y1="80.747" x2="145.529" y2="67.637"/>
	<line fill="none" stroke="#A7BDB9" stroke-width="5" stroke-miterlimit="10" x1="95.277" y1="89.762" x2="147.78" y2="76.652"/>
	<line fill="none" stroke="#A7BDB9" stroke-width="5" stroke-miterlimit="10" x1="97.56" y1="98.904" x2="150.062" y2="85.792"/>
	<path opacity="0.3" fill="#A0A09F" enable-background="new    " d="M137.123,42.038L37.558,66.899
		c-5.469,1.365-8.795,6.908-7.43,12.377l13.326,53.367c1.366,5.47,6.907,8.797,12.376,7.433l8.366-2.091
		c-0.17-0.36-0.309-0.741-0.41-1.144c-0.825-3.303,1.184-6.646,4.486-7.473c3.302-0.824,6.648,1.186,7.472,4.486
		c0.101,0.402,0.157,0.805,0.176,1.203l59.382-14.828c-0.17-0.361-0.309-0.743-0.409-1.145c-0.825-3.301,1.185-6.647,4.485-7.471
		c3.302-0.824,6.647,1.182,7.473,4.485c0.102,0.401,0.156,0.804,0.176,1.203l8.367-2.091c5.469-1.365,8.795-6.906,7.43-12.375
		l-13.326-53.369C148.132,43.999,142.591,40.672,137.123,42.038z"/>
</g>
<path fill="#BECBC8" d="M172.839,85.746H70.218c-5.637,0-10.208,4.571-10.208,10.208v55.008c0,5.637,4.571,10.207,10.208,10.207
	h8.623c-0.078-0.392-0.12-0.795-0.12-1.209c0-3.403,2.759-6.162,6.162-6.162c3.403,0,6.162,2.759,6.162,6.162
	c0,0.414-0.042,0.817-0.12,1.209h61.206c-0.078-0.392-0.121-0.795-0.121-1.209c0-3.403,2.76-6.162,6.162-6.162
	c3.404,0,6.164,2.759,6.164,6.162c0,0.414-0.043,0.817-0.121,1.209h8.625c5.637,0,10.207-4.57,10.207-10.207V95.954
	C183.046,90.317,178.476,85.746,172.839,85.746z"/>
<g opacity="0.8">
	<circle fill="#105868" cx="92.53" cy="109.973" r="12.287"/>
	<path fill="#105868" d="M87.238,119.423c1.955,6.145-8.381,7.951-12.406,9.428c-7.207,2.645-6.518,14.713-6.518,14.713h47.818
		c0,0,0.689-12.07-6.518-14.713c-4.024-1.477-14.36-3.283-12.406-9.428"/>
</g>
<line fill="none" stroke="#88A5A2" stroke-width="5" stroke-miterlimit="10" x1="120.678" y1="112.619" x2="174.792" y2="112.619"/>
<line fill="none" stroke="#88A5A2" stroke-width="5" stroke-miterlimit="10" x1="120.678" y1="121.912" x2="174.792" y2="121.912"/>
<line fill="none" stroke="#88A5A2" stroke-width="5" stroke-miterlimit="10" x1="120.678" y1="131.333" x2="174.792" y2="131.333"/>
</svg>
