<?xml version="1.0" encoding="utf-8"?>
<!-- Generator: Adobe Illustrator 16.0.4, SVG Export Plug-In . SVG Version: 6.00 Build 0)  -->
<!DOCTYPE svg PUBLIC "-//W3C//DTD SVG 1.1//EN" "http://www.w3.org/Graphics/SVG/1.1/DTD/svg11.dtd">
<svg version="1.1" id="Layer_1" xmlns="http://www.w3.org/2000/svg" xmlns:xlink="http://www.w3.org/1999/xlink" x="0px" y="0px"
	 width="195px" height="195px" viewBox="0 0 195 195" style="enable-background:new 0 0 195 195;" xml:space="preserve">
<style type="text/css">
<![CDATA[
	.st0{fill:#229DD2;}
	.st1{fill:#39BEC1;}
	.st2{fill:#D7EDEA;}
	.st3{fill:#DC8067;}
]]>
</style>
<rect x="97.3" y="73.5" class="st0" width="76" height="55.8"/>
<rect x="103.3" y="99.8" class="st2" width="21" height="7.6"/>
<rect x="102.8" y="112.1" class="st2" width="21.5" height="7.6"/>
<rect x="129.3" y="112.2" class="st1" width="10.8" height="17.3"/>
<rect x="130.5" y="99.9" class="st2" width="8.4" height="7.6"/>
<rect x="94.3" y="71.5" class="st1" width="81.8" height="2.3"/>
<rect x="102.8" y="88.9" class="st2" width="21.5" height="7.6"/>
<rect x="130.5" y="89.1" class="st2" width="8.4" height="7.6"/>
<rect x="102.8" y="77.7" class="st2" width="21.5" height="7.6"/>
<rect x="130.5" y="77.9" class="st2" width="8.4" height="7.6"/>
<rect x="112.7" y="67.5" class="st0" width="45.2" height="4.3"/>
<rect x="94.3" y="126.6" class="st0" width="81.8" height="3.6"/>
<rect x="146.2" y="99.8" class="st2" width="21" height="7.6"/>
<rect x="145.7" y="112.1" class="st2" width="21.5" height="7.6"/>
<rect x="145.7" y="88.9" class="st2" width="21.5" height="7.6"/>
<rect x="145.7" y="77.7" class="st2" width="21.5" height="7.6"/>
<rect x="69.6" y="98.7" class="st3" width="11.2" height="12.5"/>
<polygon class="st3" points="80.4,94.3 92.6,105.3 80.4,115.5 "/>
<rect x="20.5" y="74.1" class="st1" width="45.2" height="55.8"/>
<rect x="26.6" y="100.4" class="st2" width="8.4" height="7.6"/>
<rect x="38.9" y="100.4" class="st2" width="8.4" height="7.6"/>
<rect x="26.1" y="112.7" class="st2" width="8.4" height="7.6"/>
<rect x="38.9" y="112.7" class="st2" width="8.4" height="7.6"/>
<rect x="51" y="112.7" class="st0" width="10.8" height="17.3"/>
<rect x="51" y="100.4" class="st2" width="8.4" height="7.6"/>
<rect x="17.6" y="72.1" class="st1" width="49.9" height="2.3"/>
<rect x="26.1" y="89.5" class="st2" width="8.4" height="7.6"/>
<rect x="38.4" y="89.5" class="st2" width="8.4" height="7.6"/>
<rect x="50.5" y="89.5" class="st2" width="8.4" height="7.6"/>
<rect x="26.1" y="78.3" class="st2" width="8.4" height="7.6"/>
<rect x="38.4" y="78.3" class="st2" width="8.4" height="7.6"/>
<rect x="50.5" y="78.3" class="st2" width="8.4" height="7.6"/>
</svg>
