<?xml version="1.0" encoding="utf-8"?>
<!-- Generator: Adobe Illustrator 16.0.4, SVG Export Plug-In . SVG Version: 6.00 Build 0)  -->
<!DOCTYPE svg PUBLIC "-//W3C//DTD SVG 1.1//EN" "http://www.w3.org/Graphics/SVG/1.1/DTD/svg11.dtd">
<svg version="1.1" id="Layer_1" xmlns="http://www.w3.org/2000/svg" xmlns:xlink="http://www.w3.org/1999/xlink" x="0px" y="0px"
	 width="195px" height="195px" viewBox="0 0 195 195" style="enable-background:new 0 0 195 195;" xml:space="preserve">
<style type="text/css">
<![CDATA[
	.st0{fill:none;stroke:#DC8067;stroke-width:4;stroke-miterlimit:10;}
	.st1{fill:#E7D58A;}
	.st2{fill:#229DD2;}
	.st3{fill:#39BEC1;}
	.st4{fill:#005D71;}
	.st5{fill:#DC8067;}
]]>
</style>
<g>
	<line class="st0" x1="37.2" y1="87.1" x2="51.3" y2="78.6"/>
	<line class="st0" x1="50.5" y1="78.9" x2="133.9" y2="78.9"/>
	<rect x="36.3" y="85.7" class="st5" width="90.5" height="41.4"/>
	<path class="st3" d="M80.8,63.3c0,0-7.7,7.9-8.9,13.7c-1.2,5.9,0,59.7,0,59.7s4,4.6,17.4,4.4c13.3-0.2,19.6-4,19.6-4s0-54.7,0-59.3
		S100,63.3,100,63.3s1.5-11.2-0.2-12.5c-1.1-0.9-5.2-2.1-5.2-2.1v-9.4c0,0,4.6,0.2,3-2c-1.6-2.2-24.5-0.1-25.6,0s-1.1,1.6-1,2
		c0.1,0.4,1.8,1.2,2.4,1.2s1.9-1.2,2.8-1.4c0.9-0.2,9.4,0.4,9.4,0.4l-0.1,9.2c0,0-3.6,0.5-4.8,1.9C79.4,52,80.8,63.3,80.8,63.3z"/>
	<path class="st1" d="M106.1,120.3c0,0-7.9,3.1-15.7,3.1c-7.8,0-15.7-3.1-15.7-3.1V84.1c0,0,6.6,1.6,15.7,1.6
		c9.2,0,15.7-1.6,15.7-1.6V120.3z"/>
	<path class="st4" d="M130,49.5c0.9,0,2.9-0.5,10.5-0.5c8.1,0,8.8,0.4,9.7,0.5c0.9,0,1.1,8,0,8c-1.1,0-1,0-2.3,0
		c-1.2,0-0.8,6.7,0,7.4c0.8,0.7,9.6,8.7,10.5,10.5c0.8,1.8-0.2,58.1-0.2,58.1s-1.4,6.2-4.2,6.2s-25.5,0.4-28.8,0
		c-3.2-0.4-3.3-6-3.3-6s-0.7-55.5,0-58.4c0.7-2.9,9.6-9.6,10.5-10.4c0.9-0.8,0.7-7.4-0.1-7.4c-0.8,0-1.9,0-2.4,0
		C129.5,57.5,129.1,49.5,130,49.5z"/>
	<path class="st2" d="M89.2,107.6c0,0-2.3-2.9,23.4-2.9c25.7,0,24.6,2.9,24.6,2.9V121c0,0,2.4-0.1,2.9,2.4
		c0.7,3.3-4.7,21.8-4.7,21.8s-6.8,4.5-21.1,4.5c-14.3,0-23.5-3.7-23.5-3.7s-6.3-20.1-5.2-22.8c0.9-2.2,2.9-2.4,2.9-2.4L89.2,107.6z"
		/>
	<path class="st3" d="M132.1,142c0,0-11.4,3.1-19.3,3.1c-7.8,0-19.3-3.1-19.3-3.1l-1.6-14.9c0,0,11.7,3.1,20.9,3.1
		c9.2,0,20.9-3.1,20.9-3.1L132.1,142z"/>
</g>
</svg>
