<?xml version="1.0" encoding="utf-8"?>
<!-- Generator: Adobe Illustrator 16.0.4, SVG Export Plug-In . SVG Version: 6.00 Build 0)  -->
<!DOCTYPE svg PUBLIC "-//W3C//DTD SVG 1.1//EN" "http://www.w3.org/Graphics/SVG/1.1/DTD/svg11.dtd">
<svg version="1.1" id="Layer_1" xmlns="http://www.w3.org/2000/svg" xmlns:xlink="http://www.w3.org/1999/xlink" x="0px" y="0px"
	 width="195px" height="195px" viewBox="0 0 195 195" style="enable-background:new 0 0 195 195;" xml:space="preserve">
<style type="text/css">
<![CDATA[
	.st0{fill:#229DD2;}
	.st1{fill:#39BEC1;}
]]>
</style>
<circle class="st0" cx="96.8" cy="52.8" r="9.4"/>
<path class="st0" d="M94.2,65.9c-2.5,0.5-7-0.6-8.2-1.1c-4-1.9-8.3-4.1-12.1-6.5c-8.1-5-17.9-12.7-27.3-6.1
	c-4.4,3.1-8.5,6.7-13.1,9.5C29,64.4,24,66.3,19.6,69c-3.6,2.2-3.9,6.8-0.2,9.5c4.4,3.3,15.5-0.2,16.2-0.4c-1.1,2.4-1.3,8,3.1,9.3
	c6.9,2.2,10.5-1.6,15.2-3.8c-0.3,4.9,5.1,5.6,7.5,4.9c4.3-1.2,7-2.7,10.7-4.8c6.9-4,16.5-1.9,22.3,3"/>
<path class="st0" d="M93.8,61.6v100.3v0.7c0,0,3,6.2,6.1,0v-0.7V61.6"/>
<path class="st0" d="M99.4,65.9c2.5,0.5,7-0.6,8.2-1.1c4-1.9,8.3-4.1,12.1-6.5c8.1-5,17.9-12.7,27.3-6.1c4.4,3.1,8.5,6.7,13.1,9.5
	c4.5,2.7,9.5,4.6,13.9,7.3c3.6,2.2,3.9,6.8,0.2,9.5c-4.4,3.3-15.5-0.2-16.2-0.4c1.1,2.4,1.3,8-3.1,9.3c-6.9,2.2-10.5-1.6-15.2-3.8
	c0.3,4.9-5.1,5.6-7.5,4.9c-4.3-1.2-7-2.7-10.7-4.8c-6.9-4-16.5-1.9-22.3,3"/>
<path class="st1" d="M80.4,164.2c2.6-16.1,18.5-18,28-23.3c6.5-3.6,10.2-10.5,6.2-18.7c-6.2-12.8-35.7-17.8-37.5-23.2
	c-1.2-3.8,6.1,0.5,8.4,0.5c1.8,0,4.6-0.8,5.7-2.6c1.2-1.9,0.3-3.5-1.8-5.1c0,0-3.1-3-5-4c-2.3-1.3-10.4-3.4-15,0.6
	c-1.7,1.5-2.8,4.8-2.8,7.1c0,6.2,2.3,10.2,5.8,12.7c5.9,4.4,27.8,12.8,31.3,16c3.9,3.6,3.2,9.7-2.2,12.4
	C96.1,139.4,72.2,143.7,80.4,164.2z"/>
<path class="st1" d="M113,164.2c-2.6-16.1-18.5-18-28-23.3c-6.5-3.6-10.2-10.5-6.2-18.7c6.2-12.8,35.7-17.8,37.5-23.2
	c1.2-3.8-6.1,0.5-8.4,0.5c-1.8,0-4.6-0.8-5.7-2.6c-1.2-1.9-0.3-3.5,1.8-5.1c0,0,3.1-3,5-4c2.3-1.3,10.4-3.4,15,0.6
	c1.7,1.5,2.8,4.8,2.8,7.1c0,6.2-2.3,10.2-5.8,12.7c-5.9,4.4-27.8,12.8-31.3,16c-3.9,3.6-3.2,9.7,2.2,12.4
	C97.3,139.4,121.2,143.7,113,164.2z"/>
</svg>
