<?xml version="1.0" encoding="utf-8"?>
<!-- Generator: Adobe Illustrator 16.0.4, SVG Export Plug-In . SVG Version: 6.00 Build 0)  -->
<!DOCTYPE svg PUBLIC "-//W3C//DTD SVG 1.1//EN" "http://www.w3.org/Graphics/SVG/1.1/DTD/svg11.dtd">
<svg version="1.1" id="Layer_1" xmlns="http://www.w3.org/2000/svg" xmlns:xlink="http://www.w3.org/1999/xlink" x="0px" y="0px"
	 width="195px" height="195px" viewBox="0 0 195 195" style="enable-background:new 0 0 195 195;" xml:space="preserve">
<style type="text/css">
<![CDATA[
	.st0{fill:#86BCB6;}
	.st1{fill:#229DD2;}
	.st2{fill:none;stroke:#39BEC1;stroke-width:5;stroke-linecap:round;stroke-miterlimit:10;}
	.st3{fill:#005D71;}
	.st4{fill:#D7EDEA;}
	.st5{fill:#DA7F64;}
	.st6{fill:#DC8067;}
]]>
</style>
<line class="st2" x1="94.7" y1="34.7" x2="94.2" y2="146.1"/>
<path class="st1" d="M28.6,78c0,0,13.7-36.9,66.1-37.6c46.6-0.6,63.8,37,63.8,37s-2.3-3.9-20-3.4c-17.7,0.5-18.6,5.5-18.6,5.5
	s1.8-3.8-26.3-3.9c-28.1-0.1-33.5,4.8-33.5,4.8s-1.1-4.9-14.5-5.4C32.3,74.5,28.6,78,28.6,78z"/>
<path class="st2" d="M107.1,140.5c0,0,5.6,9.1-4.9,12.3c-7.8,2.4-8-6.2-8-6.2"/>
<rect x="44.2" y="92.9" class="st5" width="6" height="9.6"/>
<polygon class="st0" points="83.4,134.1 40.3,134.1 40.3,104.9 61.9,88.8 83.4,104.9 "/>
<rect x="46.1" y="105.9" class="st4" width="8" height="7.3"/>
<rect x="57.9" y="105.9" class="st4" width="8" height="7.3"/>
<rect x="45.6" y="117.6" class="st4" width="8" height="7.3"/>
<rect x="57.9" y="117.6" class="st4" width="8" height="7.3"/>
<rect x="69.4" y="117.6" class="st5" width="10.3" height="16.5"/>
<rect x="69.4" y="105.9" class="st4" width="8" height="7.3"/>
<polyline class="st5" points="37.4,105 61.9,87.1 86.2,104.9 85,106.4 61.9,89.6 38.7,106.4 "/>
<path class="st6" d="M160.3,133.6c0,0,3.4-0.5,4.8-0.8s1.2-3.5,1.2-3.5s0.3-1.5-0.5-3.2s-0.4-1.2-1.4-2c-1-0.8-11.8-3.6-13-3.6
	s-1.6,0-1.6,0l-11.9-6.4c0,0-2.5-1.6-9.9-1.6c-7.4-0.1-9.4,0.8-9.4,0.8l-12.5,5.5c0,0-3.6,0-4,0.1s-1,1.4-1,1.4l-0.4,4l-0.7,1.1
	c0,0,0.2,5.9,0.9,6c0.7,0.1,6.8,1.4,6.8,1.4s-0.8-6.6,5.8-7.1c6.6-0.6,6.2,7.4,6.2,7.4l28.9,0.4c0,0-0.5-7.9,6.4-7.9
	C161.8,125.4,160.3,133.6,160.3,133.6z"/>
<path class="st4" d="M128.5,119.6c0.2,0-0.5-4.6-0.6-5.4c-0.1-0.8-6.4,0.3-7.7,0.8c-1.3,0.4-2.5,0.8-2.7,1.7
	c-0.1,0.8-0.7,2.5-0.4,2.5S128.3,119.6,128.5,119.6z"/>
<path class="st4" d="M130.3,114.2c0.1-0.2,1.6-0.3,5,0.4c5.4,1.1,10.1,5,10.1,5s-13.4,0-14-0.1S130.2,114.4,130.3,114.2z"/>
<circle class="st3" cx="113.6" cy="131.2" r="4.9"/>
<circle class="st3" cx="154.7" cy="131.4" r="4.9"/>
</svg>
