<?xml version="1.0" encoding="utf-8"?>
<!-- Generator: Adobe Illustrator 16.0.4, SVG Export Plug-In . SVG Version: 6.00 Build 0)  -->
<!DOCTYPE svg PUBLIC "-//W3C//DTD SVG 1.1//EN" "http://www.w3.org/Graphics/SVG/1.1/DTD/svg11.dtd">
<svg version="1.1" id="Layer_1" xmlns="http://www.w3.org/2000/svg" xmlns:xlink="http://www.w3.org/1999/xlink" x="0px" y="0px"
	 width="195px" height="195px" viewBox="0 0 195 195" style="enable-background:new 0 0 195 195;" xml:space="preserve">
<style type="text/css">
<![CDATA[
	.st0{fill:#229DD2;}
	.st1{fill:none;stroke:#005D71;stroke-width:5;stroke-miterlimit:10;}
	.st2{fill:#E7D58A;stroke:#86BCB5;stroke-width:2;stroke-miterlimit:10;}
	.st3{fill:#DA7F64;stroke:#EFCCBE;stroke-width:2;stroke-miterlimit:10;}
	.st4{fill:#39BEC1;}
	.st5{fill:#005D71;}
]]>
</style>
<g>
	<path class="st0" d="M155.5,63.1c-4.9-3.4-13.8-7.5-25-5c-11.2,2.6-70.7,17.6-75.8,17.5c-5.1-0.1-25.4-16.5-25.4-16.5L22,61
		l12.8,21c0,0-4.4,1.5-3.6,4.5c1.4,5.3,31.8,7.7,36,6.6c9.9-2.6,12.3-3.2,12.3-3.2l2,5.2l-14.3,33.5l10.2-2.6l40.3-46
		c0,0,27-7,28.8-7.5C148.2,72.1,160.4,66.5,155.5,63.1z"/>
	<polygon class="st0" points="59.3,49.9 69.2,47.3 107,65 78.2,72.5 	"/>
	<circle class="st4" cx="78" cy="80.7" r="3.2"/>
	<circle class="st4" cx="87.7" cy="78.2" r="3.2"/>
	<circle class="st4" cx="98.2" cy="75.5" r="3.2"/>
	<circle class="st4" cx="107.9" cy="72.9" r="3.2"/>
	<circle class="st4" cx="118.2" cy="70.3" r="3.2"/>
	<path class="st4" d="M141.5,60.9c-2.5,0.3-6.5,2.7-7.4,4.2c-0.9,1.5,0.9,3.4,3,3.5c2.1,0,9.1-4.9,10-5.9
		C147.9,61.7,144,60.7,141.5,60.9z"/>
</g>
<g>
	<path class="st5" d="M172.1,146c0,1.5-1.2,2.8-2.8,2.8H97.7c-1.5,0-2.8-1.2-2.8-2.8v-47c0-1.5,1.2-2.8,2.8-2.8h71.6
		c1.5,0,2.8,1.2,2.8,2.8L172.1,146L172.1,146z"/>
	<path class="st1" d="M149.2,107.5c0,0.6-0.5,1.1-1.1,1.1H119c-0.6,0-1.1-0.5-1.1-1.1V88.4c0-0.6,0.5-1.1,1.1-1.1h29.1
		c0.6,0,1.1,0.5,1.1,1.1V107.5z"/>
	<path class="st5" d="M139.4,90.2c0,0.2-0.2,0.3-0.4,0.3h-10.2c-0.2,0-0.4-0.1-0.4-0.3v-4.8c0-0.2,0.2-0.3,0.4-0.3H139
		c0.2,0,0.4,0.1,0.4,0.3V90.2z"/>
	<path class="st3" d="M160.9,119.1c0.2,1.5-0.9,2.9-2.4,3.1l-16.7,2.3c-1.5,0.2-2.9-0.9-3.1-2.4l-1-7.3c-0.2-1.5,0.9-2.9,2.4-3.1
		l16.7-2.3c1.5-0.2,2.9,0.9,3.1,2.4L160.9,119.1z"/>
	
		<ellipse transform="matrix(0.2971 -0.9549 0.9549 0.2971 -42.2344 202.2475)" class="st2" cx="116.3" cy="129.8" rx="5.7" ry="11.2"/>
</g>
</svg>
